<mxfile host="app.diagrams.net" agent="Mozilla/5.0 (Macintosh; Intel Mac OS X 10_15_7) AppleWebKit/537.36 (KHTML, like Gecko) Chrome/137.0.0.0 Safari/537.36" version="27.1.6">
  <diagram name="Page-1" id="f-pgesh5ZNu8k3brizg-">
    <mxGraphModel dx="2244" dy="1436" grid="1" gridSize="10" guides="1" tooltips="1" connect="1" arrows="1" fold="1" page="1" pageScale="1" pageWidth="1169" pageHeight="827" math="0" shadow="0">
      <root>
        <mxCell id="0" />
        <mxCell id="1" parent="0" />
        <mxCell id="WIZIczAgmzSDIAD61xHs-19" value="&lt;h1&gt;Agentic RAG&lt;/h1&gt;" style="text;html=1;align=center;verticalAlign=middle;resizable=0;points=[];autosize=1;strokeColor=none;fillColor=none;" parent="1" vertex="1">
          <mxGeometry x="500" y="18" width="170" height="70" as="geometry" />
        </mxCell>
        <mxCell id="Mudxv_R2OKV88G6gSwlo-26" value="" style="edgeStyle=orthogonalEdgeStyle;rounded=0;orthogonalLoop=1;jettySize=auto;html=1;" parent="1" source="Mudxv_R2OKV88G6gSwlo-5" target="B9nktvaiZcIBfOLc8zEn-10" edge="1">
          <mxGeometry relative="1" as="geometry">
            <mxPoint x="320" y="290" as="targetPoint" />
            <Array as="points" />
          </mxGeometry>
        </mxCell>
        <mxCell id="B9nktvaiZcIBfOLc8zEn-1" value="User question" style="edgeLabel;html=1;align=center;verticalAlign=middle;resizable=0;points=[];" parent="Mudxv_R2OKV88G6gSwlo-26" vertex="1" connectable="0">
          <mxGeometry x="0.3062" y="3" relative="1" as="geometry">
            <mxPoint x="-50" as="offset" />
          </mxGeometry>
        </mxCell>
        <mxCell id="Mudxv_R2OKV88G6gSwlo-5" value="End user" style="sketch=0;points=[[0,0,0],[0.25,0,0],[0.5,0,0],[0.75,0,0],[1,0,0],[0,1,0],[0.25,1,0],[0.5,1,0],[0.75,1,0],[1,1,0],[0,0.25,0],[0,0.5,0],[0,0.75,0],[1,0.25,0],[1,0.5,0],[1,0.75,0]];outlineConnect=0;fontColor=#232F3E;fillColor=#01A88D;strokeColor=#ffffff;dashed=0;verticalLabelPosition=bottom;verticalAlign=top;align=center;html=1;fontSize=12;fontStyle=0;aspect=fixed;shape=mxgraph.aws4.resourceIcon;resIcon=mxgraph.aws4.desktop_and_app_streaming;" parent="1" vertex="1">
          <mxGeometry x="50" y="256.5" width="78" height="78" as="geometry" />
        </mxCell>
        <mxCell id="B9nktvaiZcIBfOLc8zEn-6" value="&lt;div&gt;&lt;font style=&quot;color: light-dark(rgb(5, 168, 141), rgb(237, 237, 237));&quot;&gt;Agentic RAG&lt;/font&gt;&lt;/div&gt;" style="points=[[0,0],[0.25,0],[0.5,0],[0.75,0],[1,0],[1,0.25],[1,0.5],[1,0.75],[1,1],[0.75,1],[0.5,1],[0.25,1],[0,1],[0,0.75],[0,0.5],[0,0.25]];outlineConnect=0;gradientColor=none;html=1;whiteSpace=wrap;fontSize=12;fontStyle=0;container=1;pointerEvents=0;collapsible=0;recursiveResize=0;shape=mxgraph.aws4.group;grIcon=mxgraph.aws4.group_iot_greengrass;strokeColor=light-dark(#05a88d, #61820b);fillColor=none;verticalAlign=top;align=left;spacingLeft=30;fontColor=#3F8624;dashed=0;" parent="1" vertex="1">
          <mxGeometry x="300" y="106.5" width="780" height="680" as="geometry" />
        </mxCell>
        <mxCell id="B9nktvaiZcIBfOLc8zEn-7" value="" style="sketch=0;points=[[0,0,0],[0.25,0,0],[0.5,0,0],[0.75,0,0],[1,0,0],[0,1,0],[0.25,1,0],[0.5,1,0],[0.75,1,0],[1,1,0],[0,0.25,0],[0,0.5,0],[0,0.75,0],[1,0.25,0],[1,0.5,0],[1,0.75,0]];outlineConnect=0;fontColor=#232F3E;fillColor=#01A88D;strokeColor=#ffffff;dashed=0;verticalLabelPosition=bottom;verticalAlign=top;align=center;html=1;fontSize=12;fontStyle=0;aspect=fixed;shape=mxgraph.aws4.resourceIcon;resIcon=mxgraph.aws4.bedrock;" parent="B9nktvaiZcIBfOLc8zEn-6" vertex="1">
          <mxGeometry width="30" height="30" as="geometry" />
        </mxCell>
        <mxCell id="B9nktvaiZcIBfOLc8zEn-10" value="FM Agent - Claude 3.7" style="sketch=0;points=[[0,0,0],[0.25,0,0],[0.5,0,0],[0.75,0,0],[1,0,0],[0,1,0],[0.25,1,0],[0.5,1,0],[0.75,1,0],[1,1,0],[0,0.25,0],[0,0.5,0],[0,0.75,0],[1,0.25,0],[1,0.5,0],[1,0.75,0]];outlineConnect=0;fontColor=#232F3E;fillColor=#01A88D;strokeColor=#ffffff;dashed=0;verticalLabelPosition=bottom;verticalAlign=top;align=center;html=1;fontSize=12;fontStyle=0;aspect=fixed;shape=mxgraph.aws4.resourceIcon;resIcon=mxgraph.aws4.bedrock;" parent="B9nktvaiZcIBfOLc8zEn-6" vertex="1">
          <mxGeometry x="40" y="150" width="78" height="78" as="geometry" />
        </mxCell>
        <mxCell id="B9nktvaiZcIBfOLc8zEn-24" value="" style="shape=image;verticalLabelPosition=bottom;labelBackgroundColor=default;verticalAlign=top;aspect=fixed;imageAspect=0;image=data:image/png,iVBORw0KGgoAAAANSUhEUgAAASsAAACoCAMAAACPKThEAAABIFBMVEX///9KWilCQkRZphmA2AD+/v0/P0E4ODo8PD5MoABFVyIpKSz9/vi7165mdk84TQPLzsWJ2QBBURuXnoiQwHStra101QAyMjSWlpbs7Ozw8PAvLzF9fX7m5uclJSh1dXYfHyIAAADKysrX19f29vaHh4g+UBOenp/ExMRLS024uLhoaGmCgoNISEns7uhTU1W454BkZGVPXjFaaD/c69S/w7ay057w9uvv+d+y5XOjqpa25nyT3S9kcUzN4sHc4NcRERWCi3B1gGDm8N+bxoWGumd0skZjqSg/nACrsZ+KlHhprTnf876f4U3w9uzl987V8rArQQDL76Kt5GbE65ISMQCCuVrU8LGf4FHT5cis0JXI4bglPADs+dbh9cTG7JkEgNV7AAAS1ElEQVR4nO2dC1vaPBvHYzVtoGx4GFSowAZYEA9M3cYOOp17dtC5o747vm7f/1u8SdO0aZs2wfk+pcr/up7DGNTm5/++cydNAgBTTTXVVFNNdcWC+J9up7K60mqt9tq1rG9nwtVvGbZlIIQMy7SGlW7W9zOhwqYaaDbSNSz6L92yl6e0hGoMbZcRLwv1s76tyRMEAxtFSRFzmatZ39rkqdeMmcqz1nrWtzZpqphiUgRWK+ubmyz1k1FhWNMw5FSzEgKQypwm+EAtIw2VpqNp6cDUTotANwqXs77FidG6qFoIyZ4ai6ohsxU2VsUdLN50QdBLz1ZuxhpmfZsTomFqJ+gZq5H1XU6E6nJb4YTVzvo2J0IdW4GV0cv6Nq9EEEL+/0sl8p8xPt9XYrVx9TeekT68/PXon1ev38wWCm9vAbC/uLP/Yul4fkulqx9YCqxQ3geFrnvgg1uvXhfeFrBmiQqY1e3iTLG46JTLxf2ThwfBe4W6Eaxw80e3Xr1hkDx5rDwVF8vOzMnDrZTLDFRiMO+sRo9eRzjFWbnCDjs6TsTVVspXeZ5rKP36GueUwIrIcY7mxXHYUYlBXLjnUaTfG/0zKyaVxAq/UCzPPN2KJy4IkUItanYyaevf6+WrJFDJvnKBOc4JyfQRXC3p0FnTjfwNnkkrU0mlsiKpq/xiK3rJQfpMHxFO7TkcO4/upJKSsSK0TrZww7mmdw0pK7OdQ1Y/JaTkrEiaPw6xAquyEaG+llmD/0I/ZagUWGFauwfcNTvS5J6zCXfS+T0pQfDuKljhPnHJS9YQ1wwyVGg727aPJxIxp3PVcwB+/H0MurAcluIJqnRYup2rJTOY1bPq3Fz1MQCvJLDUfFXkUUnUzNnc1WgPo5qbew/AhytgRVDR5N6Jr/eIoRrkqw/8OEdV/QbAo7+rGZir3PbLXaVjVPkRzuqfqnNMJQDT07uc1TiuMlDOBjfnAarqfQAepBpLyoqhgjFUeqQo1VFzNW9jm7OAlTy9y1gluUrX0FrPsA1dZ6Asc6WRNkk4iSqBJxwsWXqXsGK5Ku4qpOHSoL+xZphEtrY+qGfd8rGEG7X0FP+bgyVL7+msuGLBDtVVOtLr1EO1Trvd7jTy5SdAWD0tl4/DsBZKALy+JCs3AJmrQrZCeq4KzrggOC7PzJTDzpKk9zRWxZmkHhBt5hwVAA8/kyZGYV0AcCcRVtpcXwqqfOWmmCA4KNNGurCeVfn0fglfEVRU1w4VAFtF1uYwrOonAG4lGSuRFXOVoAfMPypwe9FvKIYFuDAk6X2sZxPXOgBxu5YcrqkhZ1WfJaf3BFbyAMxdkcBpvhxqbBgWTu//iGElPfNKRLXmo8otrS0n0mAeVhWn99IYvkoJwDUWgPN5G/oxQfDCibQ3DCsxvYtYMVdB0E501fznpSwb/Dd6WI6iioRhUvUuYBW4KgkVifhi+SD5diZXEEBhhcTBqj4BUJje46xUchVGNVPczWPGivSBYlgfxek9xqq4k+Yq+jcEFb76cZaNvqy2BBEYhbUHoCi9R1kFrkrJVd6Pc9LWaU2qjhInVVxY9wms6hcAfsWNFWGllqu8Ny+e5C0Kg3FgAixAYc2NAPgqYRUMbBRQ4YvnLb1DsJ82X+47q3oGwMv0dX3puYqKr3kXXyTdVGPQW13uDWpXV7FCUG80GvzwivyZqE5/u+RfDaakq8yn2CoES5TeeVYpqIZcscBfW2ys9rZpGViWuX6Fz3XWm2ZzyLGv3DWpjG3vuIPGPe+Ve+IrwJRsFQnDeHr31mwXfVReWyOojFhaZ8Y6EdwPbJk6sq1NzbYRai5flbPqTU3XTM4xFUNDFpaBkGW0GSuyQT2BVXq28mAtUVjh9F4oFN68vnPnB675Z5yyU+TSuilGJbBwWdAVbhua2erg33S3vW1r9srVoMJodBTakFExUKvd7w8qLVvXycoA2K3VG7Zu1OtJs7Yni0JAEWfRMBxB8LVAQX39+eCDRxsXHfNP93cSUQ0TXIXlPI3dz7KlBQ+fe6ZmS9bZQj/dhF6NvW+oWwNb3+RZGd6mzsamTpZdkivVTM1I/Eldqa2oswgslt4L7x6NYldiY+EoKj5XCS4dbVSjydGBYBmbTDrKFkZp5MVGE3Ma6tyq3YAVwG6y6e8njRU4FpfscVgkDN30/vb1c/dexHkklquGXe/WhajKDyOfXzUQn4CBpntx0+716qDW29b1Ya/L3gFBt7KuIW29wl4a9PDfkrch/DbuOssGvg7GE6yc51iBdWTQxJjKale6eIqHtUeWuoOUnjwJVVJ3WzwKXQuCpmb1+ZdwmtFpY827jWUTJ2IdWchP0QPbcvOzZXTo51v2YbfnvU3jSgSk47xeb+oGd+WA1bKBaF5MYyXP7AEsEobnidDdO43nqq5XnCZVJpHs3ra1ZuiFWtPrvJYNfWhZ5nBo2Boi2YU4u9JE9sagPcDpGb+L/KQVhLYto7m2bdg62vaouzdGNruuo2BrIs9qFXlby9JYJYyaE2F9SenC46iCXCWa9HHlhEfQuHOKLIFEutWnrDTDqJDr9S22CaXT1DVqsb7tfW4Fd3ZWz32byWWnDeTuxRhYyO9XeVZDFunJrCBUDEEPVqrErqJ/k1zvFm+HLoLTVWTv4DaizcAJhy2j6dtewh8im0XjBmo2KCtjxXtbz/BLhC72HeHXNXV/kz7Hiri5IWEFtj4ro/KK0jFQIT9XJbpqJhqEK8iInM7Q8l5ZNswaM/WQeq1jIj9Vd2yjQi/QZGm+Y/sm6lto3b3HFWSxgiRg1bZ0w9tZlsJKrRdkFogUjrV2b3VjZWO50nEjLQkVxKhS3OuEesIWiu7fxfRWPVZ+Ru/RZvYM2w+yrkkNiVmxuK83/b11LWTTheBt209ipBbtY/W2cf252ZWyki8h5hoVGrx1B9uGaXgHyKH1/iVd5Q6guRSY6iufFbYJobCO0MYqE3Kdw7Pq3mWsuk3d9l40dNOryrkxjrnO7jWRFSyp9oIzkUoI4l8pt6Yfj982jcuhwsNIvrfwO29fOF9VoqzaNJMPdZzHmZARZQV9VhXMtuZOINRWvMtRVnSo3AqWPif7SjLFwMvhM3tnM7ZKNvJnQxVVZLIBl1ORgywM3e4nsFrTUYvTcgIriKHi3yYV8rew4Bjc6GDVAFcvJrNST1fkt89qFTxKky6S5XKV7NIhw3ZwjxQa0zRMjQZNhBWhMNTN2EyTyFd43ISjzaBCbHciXzP4SmYlm47hGjTPPgPBhi3Z+jAWqsjEjI2HuHwC6zGj8awqtBrAnVps646IVQ8HdrtP1d5gGXEsVhCokpop7gcf25DuWB4jACPXdstzjftj19K9Db08K6/8rsSSm5iVpgf9JTaqN84Zz1db6kW7byvQk6JSTuueHD651+/q/vgWkl6QjeB8VtBvLh3/QO+tdKZDwKpjekNKqjWdjnPGY6U8GCzu+p/pSI9kGs9VWJ9DdVvF1GwfVsvy9+e4tairLm4tPfVpBQ+smdnqG0m5fTVch/Q8NwpZ1ZNYKbaFH7TBNemWNooKKuUqV5xp3aZh1+iVTq3WwSWn1mSTWTg4jeV2rdbAkWd4fWVXQ7q5Sl4ctEy7J2YFbT2017zRpOOcOKvuoD+wNNTvCza6KA+cy96PxwN72ZEBuu8q5fFTZPgMKncxFrvZtPF/gq1MZOxs2WbTNHTL/xn1oe2+lUzCNBNY9e3IRtdtOs6Js2rcNcieWcM4jLN6IZ8+dhVMMslPDGDTBPgDO4qsFqOD8vqqSR7kWCZ/QjIeO1eGTYvw4kdBlc0mmb6y77Zol7h+eI/NlnfvHZLydHh42AvNjlTuHRJf9u4dRo7MaNy7SyV4NqFaMgS/eIUTTgK/K8zkU1bRx4S4YZ1BpdIPFU9ubq/1K5Xo/sIGfm3g/VDoJ3r/UtFX+DfGfmyiVCdkuOU/8nMJufNNHiqGeGRaJkF8zfD3EhJMgQVnVH3FOqq6wqEdwaMS1W62uKPSuqtlNa66qqndb4u8YMDy9yt3Py8qyXFUnpdmzEr19+7HiLQXJLJYQoFLqlK520xZwbpip467Qf9+VVh51ckVrxdaNg8z9NXWf8pq8vsp6ZEdLqv/z4FMncEgw6XLcF5RfjeoxCqYBP55R1GlbACoa4wYYW9VikHD9xU5iE1Jk7+8D5ZUxdqicD5vkK8ATNmjGV6alBUBZcHR3IKa9thHlA4mZE92hWtxc8oKjLg94Oli+UThjGwtWNciOzPE15usCKirpIqK7F1yJZ+R4Y8ZSj/ZgdO7HKxHXlBl9Y01RqEjtPxuUHK8ShCCX3PA6r0qqzPWGIWTn/0VBtIzjnxWd7ICMIbOVINwwS+AtiUTDXpw5Kx6an+UA189U03uZD0flfSLNewGa7j0nDGf1a2sAIyhb8od4Zn/GckXtnDfBKQagrOFB1k0fkx9VGZFzuChSp/CQmt+NI1UUc2+jS/UnTw9Vkb1nTUHkqdtydmK+6KIhA3SAr2Z+OEgkVrRUJ07BdzwsW8mHU/IP95VLkRnZ19l0fSx9V0J1XkJg/JzCiRrM8UBaHUCosnHqkRV+JlN48fUF3nCqn4nqWr06i2XgDubgvlR3Rr6AQjVO0Gcrn5k0PLxdSFjVV34Rt73qFCYfednFQi6y3akO9QNi39qV3qjjGq2kIfUjlstQ3WfAPrxjpgEV9dcxdjYsC2/R9SRZa2G9vso1wuz+RgNkltMrdxZ+HntxuU1r3qlhSx3qZylt0LTu3CMPhBf9p88sAKpCcvr/R4FR22/jdbXsEFWgLVjjwzkR07zrPKRrnCFlcSqyocfa9Xz0Gdh4v8K9pCnsMqHqwAs7SWgeu+FH4/qB1kOJm0Z+YKKX2/VUeVhkoHqj8hYXO8XQgXh7lEqK7Ki4oi85bl6dfU87YITJVEQCsKPugruO4s785InQA//S1YgqTsrFwMcqlgQkvCD4EOk7iaoSvuLZNHMi63QF6AxkVc+7uHQPSoTZynmrHAlMuGKzMtU5wTh5+WqfbpWRLSf29Xv99Xqd3LiinNEcpYSrFzMxzCFy9HqffJbjoQf56oZuhz908Kfx2E7wIvzhSo5xOE3AE8dR9lZr7Np9SV1vxoKP674DP3ymavcLSF7uKbYe/bl4vFoVBqNHn88f+KCIlqAAO4UVZ1V+JV188eSn91p+MFo+DFXeajI8m1vjrBK+Cy4/+V4n7vbfBw3wcthjfU9j9nrLKX38121y9a1kd0zT8RFmXcdkt4X1WDl4qkEL9dYNPyivV/gKn+ZbLEre179HUByoJYbhpI6q5CjgoEIYmMl9H6eq2DgKnd9tbB+5Yz1m24gkzsrJ7N8vB5Xnwl7vyAAuRNtDwBMGBf5WvDWtru94fO0orSUrwgkEhWfYlRkOeRv6QThubeLUxKGJFvlD5Y4/OKo3Mwun6Qn6d3dk5HurHdZN/pSGr0RH7QaRUWOykmcxuGEq/e6m+LSnJWTefaYviq5yj2C6VyBVfWU7Q9OdlauRoK84gfxCV3lbEmn6D2V2JEiTuIUzYd8soKCtVIEVSmMahFn9lOl5/p+ek+E9TZfo5uQolEocJW7KVJxzZaf3gmsUhxWIR8Pm8WKLNUQoSJDQZXM7uo9rt69ClaY4HNWsfOC4QQsQuVuI1RfsvUtOP4hHoa5mrYSiHuoJ0Q143TVl+PStYBsg2LUWblYnZYiGKQsMSp3kk95xZb7JUT+DsKws3L07CZJJW9AGJ6ECTL7gWB2Pg0WTu8nTgDLd1bhay6HNmGNUlzlHs8hXSsSEk7vdf8ygbMKZBVJ3mFBenioGJV7ppfywmVqLJLe/f2czm3mrJwWoVH9KBBUWwJUM0UIR2OhmnP3pgSHeHvOKrzMv6uIIPjxQ5ir6PlXkkm+uLGehTaIU2c9uBakPNVFrnKfCqruSQlgXYROaXD2rxEm4B6jKdperzTJF9d7jJ472KB8JL+BXGlrR3BsAxkKKq3EjRjrE3/Cj7Obx2/jSBEMHptyttpRm+SLi0vvZJ3D9QpCLPgienKD6iRf3FhBepede5tXHUdOTy0rT/LFYF3Qs6OKTvT08Wujgx0+DslJQuobncLC1Xu3eP1SVSCcWE44a407FAwZ6wtZv7YErkcFmqD5GWat8YeCIY0AzNuXBo0p3B8ulWkdSb6l7MmlWZFvqbjOnvJ0cNsNxMWxJvmiqL5fyH9Q/oXNML9bLpL1Hgq7nMSk9n7fBFN5erj730tn9ureada3/y+KWGIejrHblwNVfR/ao3lT9Kc6Lqzq3JMbkacEGn3ZGwMXttQX8gDwxnmK6fEfNVwEFFlQeWNBUT3+RBZnp+yjI0u5T8k+0xsOymv/6Nuf9wvuOu0qzwj/aeH7n9N87Mf9VzW6OP12/uTs7DvW2dnZs/Nvvy+CFQo33VQhCZ+FXoMHpP+WRHu/pppqqqmmmmqq/Ot/pfBU80YiA70AAAAASUVORK5CYII=;" parent="B9nktvaiZcIBfOLc8zEn-6" vertex="1">
          <mxGeometry x="325" y="30" width="78" height="43.83" as="geometry" />
        </mxCell>
        <mxCell id="B9nktvaiZcIBfOLc8zEn-25" value="Multi-function Agent" style="fillColor=none;strokeColor=#5A6C86;dashed=1;verticalAlign=top;fontStyle=0;fontColor=#5A6C86;whiteSpace=wrap;html=1;" parent="B9nktvaiZcIBfOLc8zEn-6" vertex="1">
          <mxGeometry x="325" y="30" width="410" height="440" as="geometry" />
        </mxCell>
        <mxCell id="B9nktvaiZcIBfOLc8zEn-34" style="edgeStyle=orthogonalEdgeStyle;rounded=0;orthogonalLoop=1;jettySize=auto;html=1;" parent="B9nktvaiZcIBfOLc8zEn-6" source="B9nktvaiZcIBfOLc8zEn-26" target="B9nktvaiZcIBfOLc8zEn-28" edge="1">
          <mxGeometry relative="1" as="geometry" />
        </mxCell>
        <mxCell id="B9nktvaiZcIBfOLc8zEn-35" style="edgeStyle=orthogonalEdgeStyle;rounded=0;orthogonalLoop=1;jettySize=auto;html=1;" parent="B9nktvaiZcIBfOLc8zEn-6" source="B9nktvaiZcIBfOLc8zEn-26" target="B9nktvaiZcIBfOLc8zEn-29" edge="1">
          <mxGeometry relative="1" as="geometry">
            <Array as="points">
              <mxPoint x="395" y="260" />
            </Array>
          </mxGeometry>
        </mxCell>
        <mxCell id="B9nktvaiZcIBfOLc8zEn-36" style="edgeStyle=orthogonalEdgeStyle;rounded=0;orthogonalLoop=1;jettySize=auto;html=1;" parent="B9nktvaiZcIBfOLc8zEn-6" source="B9nktvaiZcIBfOLc8zEn-26" target="B9nktvaiZcIBfOLc8zEn-30" edge="1">
          <mxGeometry relative="1" as="geometry">
            <Array as="points">
              <mxPoint x="394" y="389" />
            </Array>
          </mxGeometry>
        </mxCell>
        <mxCell id="B9nktvaiZcIBfOLc8zEn-26" value="Action Group Lambda" style="sketch=0;outlineConnect=0;fontColor=#232F3E;gradientColor=none;fillColor=#ED7100;strokeColor=none;dashed=0;verticalLabelPosition=bottom;verticalAlign=top;align=center;html=1;fontSize=12;fontStyle=0;aspect=fixed;pointerEvents=1;shape=mxgraph.aws4.lambda_function;" parent="B9nktvaiZcIBfOLc8zEn-6" vertex="1">
          <mxGeometry x="355" y="92" width="78" height="78" as="geometry" />
        </mxCell>
        <mxCell id="B9nktvaiZcIBfOLc8zEn-28" value="/available_events" style="sketch=0;outlineConnect=0;fontColor=#232F3E;gradientColor=none;fillColor=#8C4FFF;strokeColor=none;dashed=0;verticalLabelPosition=bottom;verticalAlign=top;align=center;html=1;fontSize=12;fontStyle=0;aspect=fixed;pointerEvents=1;shape=mxgraph.aws4.endpoint;" parent="B9nktvaiZcIBfOLc8zEn-6" vertex="1">
          <mxGeometry x="505" y="92" width="78" height="78" as="geometry" />
        </mxCell>
        <mxCell id="B9nktvaiZcIBfOLc8zEn-29" value="/event_details" style="sketch=0;outlineConnect=0;fontColor=#232F3E;gradientColor=none;fillColor=#8C4FFF;strokeColor=none;dashed=0;verticalLabelPosition=bottom;verticalAlign=top;align=center;html=1;fontSize=12;fontStyle=0;aspect=fixed;pointerEvents=1;shape=mxgraph.aws4.endpoint;" parent="B9nktvaiZcIBfOLc8zEn-6" vertex="1">
          <mxGeometry x="505" y="220" width="78" height="78" as="geometry" />
        </mxCell>
        <mxCell id="B9nktvaiZcIBfOLc8zEn-39" style="edgeStyle=orthogonalEdgeStyle;rounded=0;orthogonalLoop=1;jettySize=auto;html=1;" parent="B9nktvaiZcIBfOLc8zEn-6" source="B9nktvaiZcIBfOLc8zEn-30" target="B9nktvaiZcIBfOLc8zEn-33" edge="1">
          <mxGeometry relative="1" as="geometry" />
        </mxCell>
        <mxCell id="B9nktvaiZcIBfOLc8zEn-30" value="/buy_ticket" style="sketch=0;outlineConnect=0;fontColor=#232F3E;gradientColor=none;fillColor=#8C4FFF;strokeColor=none;dashed=0;verticalLabelPosition=bottom;verticalAlign=top;align=center;html=1;fontSize=12;fontStyle=0;aspect=fixed;pointerEvents=1;shape=mxgraph.aws4.endpoint;" parent="B9nktvaiZcIBfOLc8zEn-6" vertex="1">
          <mxGeometry x="505" y="350" width="78" height="78" as="geometry" />
        </mxCell>
        <mxCell id="B9nktvaiZcIBfOLc8zEn-32" value="" style="sketch=0;points=[[0,0,0],[0.25,0,0],[0.5,0,0],[0.75,0,0],[1,0,0],[0,1,0],[0.25,1,0],[0.5,1,0],[0.75,1,0],[1,1,0],[0,0.25,0],[0,0.5,0],[0,0.75,0],[1,0.25,0],[1,0.5,0],[1,0.75,0]];outlineConnect=0;fontColor=#232F3E;fillColor=#C925D1;strokeColor=#ffffff;dashed=0;verticalLabelPosition=bottom;verticalAlign=top;align=center;html=1;fontSize=12;fontStyle=0;aspect=fixed;shape=mxgraph.aws4.resourceIcon;resIcon=mxgraph.aws4.dynamodb;" parent="B9nktvaiZcIBfOLc8zEn-6" vertex="1">
          <mxGeometry x="625" y="160" width="78" height="78" as="geometry" />
        </mxCell>
        <mxCell id="B9nktvaiZcIBfOLc8zEn-33" value="" style="sketch=0;outlineConnect=0;fontColor=#232F3E;gradientColor=none;fillColor=#C925D1;strokeColor=none;dashed=0;verticalLabelPosition=bottom;verticalAlign=top;align=center;html=1;fontSize=12;fontStyle=0;aspect=fixed;pointerEvents=1;shape=mxgraph.aws4.aurora_instance;" parent="B9nktvaiZcIBfOLc8zEn-6" vertex="1">
          <mxGeometry x="633" y="350" width="78" height="78" as="geometry" />
        </mxCell>
        <mxCell id="B9nktvaiZcIBfOLc8zEn-37" style="edgeStyle=orthogonalEdgeStyle;rounded=0;orthogonalLoop=1;jettySize=auto;html=1;entryX=0.5;entryY=0;entryDx=0;entryDy=0;entryPerimeter=0;" parent="B9nktvaiZcIBfOLc8zEn-6" source="B9nktvaiZcIBfOLc8zEn-28" target="B9nktvaiZcIBfOLc8zEn-32" edge="1">
          <mxGeometry relative="1" as="geometry" />
        </mxCell>
        <mxCell id="B9nktvaiZcIBfOLc8zEn-38" style="edgeStyle=orthogonalEdgeStyle;rounded=0;orthogonalLoop=1;jettySize=auto;html=1;entryX=0.5;entryY=1;entryDx=0;entryDy=0;entryPerimeter=0;" parent="B9nktvaiZcIBfOLc8zEn-6" source="B9nktvaiZcIBfOLc8zEn-29" target="B9nktvaiZcIBfOLc8zEn-32" edge="1">
          <mxGeometry relative="1" as="geometry" />
        </mxCell>
        <mxCell id="B9nktvaiZcIBfOLc8zEn-12" value="Knowledege Base (RAG)" style="fillColor=none;strokeColor=#5A6C86;dashed=1;verticalAlign=top;fontStyle=0;fontColor=#5A6C86;whiteSpace=wrap;html=1;" parent="B9nktvaiZcIBfOLc8zEn-6" vertex="1">
          <mxGeometry x="20" y="491" width="710" height="160" as="geometry" />
        </mxCell>
        <mxCell id="B9nktvaiZcIBfOLc8zEn-49" style="edgeStyle=orthogonalEdgeStyle;rounded=0;orthogonalLoop=1;jettySize=auto;html=1;startArrow=classic;startFill=1;entryX=0;entryY=0.5;entryDx=0;entryDy=0;" parent="B9nktvaiZcIBfOLc8zEn-6" source="B9nktvaiZcIBfOLc8zEn-15" target="bfBr22un--se7fOf5ZBj-1" edge="1">
          <mxGeometry relative="1" as="geometry">
            <mxPoint x="220" y="564.0999999999999" as="targetPoint" />
          </mxGeometry>
        </mxCell>
        <mxCell id="B9nktvaiZcIBfOLc8zEn-15" value="KB FM&lt;br&gt;Amazon Nova Micro" style="sketch=0;points=[[0,0,0],[0.25,0,0],[0.5,0,0],[0.75,0,0],[1,0,0],[0,1,0],[0.25,1,0],[0.5,1,0],[0.75,1,0],[1,1,0],[0,0.25,0],[0,0.5,0],[0,0.75,0],[1,0.25,0],[1,0.5,0],[1,0.75,0]];outlineConnect=0;fontColor=#232F3E;fillColor=#01A88D;strokeColor=#ffffff;dashed=0;verticalLabelPosition=bottom;verticalAlign=top;align=center;html=1;fontSize=12;fontStyle=0;aspect=fixed;shape=mxgraph.aws4.resourceIcon;resIcon=mxgraph.aws4.bedrock;" parent="B9nktvaiZcIBfOLc8zEn-6" vertex="1">
          <mxGeometry x="40" y="525" width="78" height="78" as="geometry" />
        </mxCell>
        <mxCell id="B9nktvaiZcIBfOLc8zEn-40" style="edgeStyle=orthogonalEdgeStyle;rounded=0;orthogonalLoop=1;jettySize=auto;html=1;entryX=0.359;entryY=0.018;entryDx=0;entryDy=0;entryPerimeter=0;startArrow=classic;startFill=1;" parent="B9nktvaiZcIBfOLc8zEn-6" source="B9nktvaiZcIBfOLc8zEn-10" target="B9nktvaiZcIBfOLc8zEn-12" edge="1">
          <mxGeometry relative="1" as="geometry" />
        </mxCell>
        <mxCell id="B9nktvaiZcIBfOLc8zEn-43" value="retrieve proprietary data" style="edgeLabel;html=1;align=center;verticalAlign=middle;resizable=0;points=[];" parent="B9nktvaiZcIBfOLc8zEn-40" vertex="1" connectable="0">
          <mxGeometry x="0.6537" y="3" relative="1" as="geometry">
            <mxPoint as="offset" />
          </mxGeometry>
        </mxCell>
        <mxCell id="B9nktvaiZcIBfOLc8zEn-41" style="edgeStyle=orthogonalEdgeStyle;rounded=0;orthogonalLoop=1;jettySize=auto;html=1;entryX=0.004;entryY=0.362;entryDx=0;entryDy=0;entryPerimeter=0;" parent="B9nktvaiZcIBfOLc8zEn-6" source="B9nktvaiZcIBfOLc8zEn-10" target="B9nktvaiZcIBfOLc8zEn-25" edge="1">
          <mxGeometry relative="1" as="geometry" />
        </mxCell>
        <mxCell id="B9nktvaiZcIBfOLc8zEn-42" value="execute actions&lt;br&gt;fetches structured data" style="edgeLabel;html=1;align=center;verticalAlign=middle;resizable=0;points=[];" parent="B9nktvaiZcIBfOLc8zEn-41" vertex="1" connectable="0">
          <mxGeometry x="-0.2721" y="2" relative="1" as="geometry">
            <mxPoint x="-1" as="offset" />
          </mxGeometry>
        </mxCell>
        <mxCell id="B9nktvaiZcIBfOLc8zEn-47" value="Vector Store&#xa;Pinecone" style="shape=image;verticalLabelPosition=bottom;labelBackgroundColor=default;verticalAlign=top;aspect=fixed;imageAspect=0;image=data:image/png,iVBORw0KGgoAAAANSUhEUgAAALIAAACyCAMAAADRVGVaAAAASFBMVEX///8gHR7x8fHHx8ctKyxXVVaPjo5zcnLj4+NJR0irqqvV1dU7OTqBgIBlY2S5ubmdnJ0mJCU2NDR6eXlZV1hCQEGIh4deXF0qec8KAAAHPklEQVR4nO1c17akKhBtQQSzZ+aG///TayAUUewRca3LfjrBbrdYtStQ+vkUFBQUFBQUFBQUFBQUFBQUFBQUFBRcBaNVRVluFheAflcbapSbSDS6ujow5GYSCUwqCZqbTAwQrSCW3HzO0dSVDpyb0QnwUJmo+9ykQmDEIryifa9soMZFeMWUm5kPnWnECmNubm6MGskfnXOXm50TPWBIsLnO73RBKccD/gjKcunfGbnRYct1s/7MHbH+TO+WjZ0n3alxpuSDWsH5nZF7WI34+KmVSsGkjrwkciO8oWua/TcshQEIhXLLbMkzWqZ2IMSIc/oxgua+5h236zkH2w3KOAOUO+2vu5QM+WRudDI2KHPBEPn9ekdIRsFwL7JBmVuNyC3QkFUu3IwN1+Iq0Yjfs2py76Gs5fGI/zGbw2noXHxrQjTnEuHaULWBZnFBmBK3qyQ7DxJpqP7X7ULaDCmdJsd+p0K4oS3R/3akTfX4dETRS7vm/AMSTH6KPGrjqNJx4T5Dkxqa5zTESt3jK36j9KZP9QoWcUIpFrEiYKvjsDyy1Dxct8oNo8sN1Fgtjpo+QJoIqVDZ0YVyY55M0m1Crhz8TI0sm6qt9IgHG43OQXLxEEK1uU4vT34t5+m0xOqKTH4FLRJL9bjYdOt+AcrJqytZOB/n9jFG2B/hsJ69Jpc6WTgf2K+gNRmjTVY8Kb3VZ0wuGapwPkAdgtH9eIWEUYPwA/sSlgESU1nVnsNf5oeR1Sy/pjbfYaEkaIDanoMhBs7GaHLB2MFm73kWnRXMmZge+lrHIRlg7TloUgL/OXRCIFOXKUFBYlYwXqkBQ1c54NZnFOlVYsZjyPIcrlXpKYTwyxF9QHqVFDRgerO9D3UAxPJjmfmuttHoSAJ0nMSZxbj3oQ6AgEwr2Ri1Gh0pGHMXd6YTmk2Y3SR1kWyQP8P0KhFU1lY7sodFERxmnobI7R3nRXoaHUkYuxN6sbL1WoXyYELUzonjE6J0TcYYdIjc2Q5ftIl9QBoiLcQRlKn3P7cz9iXzmyYPh2HyI5cPGvyfMtOrmwHSBu8pWF1zaQD9e2VOljbK60oBmOgEEoJZGMzMj0XgZ9sA1jxlahMJBthmiNvr0Pr3S9iccIr8nqkyLbLAI9q60pObcz+AuA2R1Tv3ORHW2qp+duhFD8SENoEylMMwezQFPoESGEZloybjErDBK3lwl2LTx0HZrQCKBj/i/Lv3guD+gO3L0PyrE5sH86r2/uTT6iZXunPZWEgdQ0V21u/3Tc8yhysq3NBTXRN7tPdnGXJ/Qx8V+nMTlH3T+zufYjVahJdRrvkNXyzSz/vbRXI1jlu93XRyy900vvhOyNUAWnyLNAk5vH9OSma9t1eWyb443WrMyZZZFkS3lBBkamZhV8Kb7w/bMp5EmDCjhIT8iYvmlqdc++KLEKtxGl15BRNYNRhOh+nv2C++DBlPTqLrfO5Qnmnh+8O2KP+Cegy7XF4Kju7ovuC3U0bnHTSkDXZ5iy7PLFWCsH0Mcwa8xNxU8G0SexgnsOY1npBAnYHthM9jQ91InH3oBG0jzwzRDmTtjO33xH/8NsMTfXQKLJ4J/JN0p+/+AR98crLL8RiJwIly9Wqlf57sG3hEa0e4VwNaJGk6HR1pmmaxuxgwNBBz6i80W9KddKz/HFx1LWFWcyR1J/nLO+6XLnB1U6KNd65ituKLc29DZKLPra7Dl/wBjUmmFcTrUft/yG4xss8daCxvgKqYboLEoiytulcdRsVC3XeHC8Ix84RN0UGnjCbFpRGDhXD+XrplbX+XctmkT9Xxc/DfcO1qYcH+vbBWl37JVU47nQ8p86TNUg+tf3/wsmZ4IOfEj/MAyr2Id+YC6nNH2xMwPv3a3TPxICJWC6gs0dyCNPr3faC+XTmnToSwWEAGUzBjmU0RCBWhXfL9E0EZZm2m82D3heQCFwOYZo7WrJmuKh6wp0atrcLYIV78GEf/fgY7hlPVNo8kxyZlpxQcO6ZWKrSGHdDDOmzqgRc66JTrkO+YF3PUAOJCtHCTFFomT64skegV8KtMPdSg8P30rqDMh2WGb77jK8Civx2vuI9MKPaFFZnTAw5o9Clq2kUbo3zQATw3/MRrPhydCrJEmrR03T75sAsEc/YqItMEYRrts8/UMfrLphyZJ8jrHcUgfFquCv1idqVixU6O0T0xNWkAdROwkPgRU6NB8/TMMh5Fig+dCNP1Wgbfk3xId4UMT5CzZeIKICADhmcBZ8j4gWeMXEAzBeIKOvhQDKr9oVYyNk3zL6D8zPh9GHCbCe472hpTGXcnG7RAo0zD8/jzYxIXguZcSsE8IzOveLuOxkjllR7Kr3hRjYfy7Kb8ivenaHsPKvFw76S+4/Up2i6lnvL0GM+rxlH5BpAnHlaNAIuN4izJKO1XUO3kd7/UDGLm6+zudL4Ta45HCH3H6zAKCgoKCgoKCgoKCgoKCgoKCgoK/r/4Dwr2Kwo0t/bjAAAAAElFTkSuQmCC;" parent="B9nktvaiZcIBfOLc8zEn-6" vertex="1">
          <mxGeometry x="447.5" y="525" width="78" height="78" as="geometry" />
        </mxCell>
        <mxCell id="B9nktvaiZcIBfOLc8zEn-50" style="edgeStyle=orthogonalEdgeStyle;rounded=0;orthogonalLoop=1;jettySize=auto;html=1;startArrow=classic;startFill=1;" parent="B9nktvaiZcIBfOLc8zEn-6" source="bfBr22un--se7fOf5ZBj-1" target="B9nktvaiZcIBfOLc8zEn-47" edge="1">
          <mxGeometry relative="1" as="geometry">
            <mxPoint x="349.51" y="564.0999999999999" as="sourcePoint" />
          </mxGeometry>
        </mxCell>
        <mxCell id="B9nktvaiZcIBfOLc8zEn-53" value="Private Documents" style="sketch=0;outlineConnect=0;fontColor=#232F3E;gradientColor=none;fillColor=#7AA116;strokeColor=none;dashed=0;verticalLabelPosition=bottom;verticalAlign=top;align=center;html=1;fontSize=12;fontStyle=0;aspect=fixed;pointerEvents=1;shape=mxgraph.aws4.bucket;" parent="B9nktvaiZcIBfOLc8zEn-6" vertex="1">
          <mxGeometry x="639" y="573.5" width="50" height="52" as="geometry" />
        </mxCell>
        <mxCell id="bfBr22un--se7fOf5ZBj-1" value="Embeddings Model&#xa;Titan Nova Micro" style="shape=image;verticalLabelPosition=bottom;labelBackgroundColor=default;verticalAlign=top;aspect=fixed;imageAspect=0;image=data:image/webp,UklGRohaAABXRUJQVlA4IHxaAAAQlAGdASqAAksCPjEYikMiIaEUyS0wIAMEsrdnpb4n/zz76cWx04AP+R0afK3nh0vIH55mSq16xSPMXaW5/3yP+j27c6++vuv9+/X38tfTR2Od6+5H4i/hVhzdrfxfLC4//s/5X/2D/////77f8H+1/kx8z/7h+13uEfpv/aP7p+6H9p+sfp08wf8v/uv/H/uX7//MH/3/89/KPft/bf8h/lv6b8AH8c/tH/i9pn1lv7t/0PYI/Y3//+03/xf23+G/9sP+R/p/3/+Gz7/9FV/sn9a/XbzMfrP9m/vH7G/3X/v+Y/7n+2/k9/gf/B/nvkwsY/FX3Z/jP2P/G/039i/7V+5v3e/iv9D/cvIX5F/139Z9gX8Y/jX95/pn+D/wv71f5D3Jf7/+r9+FtP+6/VH2Bfaf6f/mP6l+4f979L7++9GPtN/sv7X+2H0A/1D+3f6/+jfvB/i///9Y/9nwmfYvYD/n3+C/2/9f/dz+1/St/If7n+l/5n9q/bL+d/4H/i/0H/O/sv9g38w/pv+k/on+T/6/+M////++6j/p+5H9qf+h/EPhB/Yb/2fzT/ff/82iEF8tKm8H18j8earpggQwr/zHog9Q8oPGciVN5YvlpU3li+WlTeWL5aVN4AvSko8tLRePs2OvYLN1xh5423NO4x1k/KIKXoI0g4LdTTSv5nggvlpU3li+WlTeWL5aVN4iuqf/4KB2XOX06tXf7huw53qQHxkb2HT//5CLDf2DA7OWD3VOpHLQHz9AxvaE5bCdVC6dU3li+WlTeWL5aVN5YvkEjz/RT6J8gZKa//uMwz4QEdsOfVz70Pi6DaLSlcJab4CZQiuCRiqykX1460N0RBN04sQpxeL5aVN5YvlpU3li+WSLzu+dk9/ruyP6dpb/+nVM4wTS/G5ub3Su55AFdJpt7cMNgOaC8Xy0qJw6gytjhxUlVx0YoLC6wMbUjan6p8633ilnKwlJf+tAwurw6kZzgetFP91c+pskVPeDr1KJQslrSuWLxmXo/kjZeYHVBBfLJk+dJBx77jjEG2CcoGEh4zcm7swgm9gVU/LEjmmqu73ZGKN4sjZI4uY/7w5Y7am8GGo4Z92NGgvF8svIgqK843AFlrgiMv1yoa3DXxMSVz6PAWZVfjg8qd209mADVJrp4JdAJvLEmwdcqVVy0A/NQXwKDo0F4kRaBdIqPsRpOU9SiI5ub2khb/1qECdC2l9PAWWt3sWC/2++hk30TfiKBTPQ8srlv1Wk88wne/58r50WcuVu1fDl3YZi2Ryi9Ri9FnNLmocBqIY6k0eZ7SKpXpFVyy/Llb7UlbsG6a8Dt9JXIZDSPHPVRxOWlTeWL5aVN4hyYc/aFhFt3htc94nk97qmCW9ppx4Kl/LO+MkpLOIFBMQnb62A5rkCg6NBeL5aVN5YjK+qtd7YhWhQqH2Na9C7qb5oqJ72lgAXC4JIZJm6zJWQnc85QCKZcIPm1r1gfFDIoGmseO/jh2ZRk5cprla0dIX5qmHGSygvuRbZERcwOqCC+WlTeWLwSKVCKUfFqE+qGq35/jp/SM1MRWa59S43hq53oEyVTNIlq3BnNDNxZX5o06uz8yCQiSGrLqo+DM2/4JQPvm7DDH22Lzdue2n/ZX01/nGMKV+HmCeTSEChkdhSaEKjOf4CHlTS4OqCC+WlTZs+8B283cMYk2RRBjbRGDL3vSISdHwTmw1OfJvqvYPa27X/azHQbYMFPHdZHPw7rWrQj4AcwJZA45dWnwiq/9OsnYDSV64Dy6Gf9z+g4DwQ1CLoE0jzzFYCFqWc5lgOeWIHmrK1S0ULcMVLi83Qn7FbEV/bQTW06xK/Y/8UPswjhXMr6KK8Mjv3XjpGJN/cQLgbucxs7m4OLqeZ5mgLsnZaFyre4wtp6yuJ+LssEkq87Q6MaRij/+ykJ3z94d3tgRqbnwRfpdd9cJq6AjvXzzZmm8NbgsP6bec7sJY11xDwB7ejhaIxKxSqVL/VlnpKxMURH9odThEs3y9qameerKPiH6mJpPFMUFhdYEjP9oMEKsFwWxD+VOjQSbwRgTGKGpcvbA+PYGxbqlCbTu4iv7/nIMiKwtvKS/HRhXSs9qWVlB1lWKqduBopar0R75AnBzB2rY0ZIulevrvEkiBqMuh9DV/fmo4hFldKatU9W9REig6NBdOMw+f2meKPh9FQEgWulno9YpfipscT/2skS82CoZ+YWaigpeMyNHrplVkWBnLHT2gfVLxfIOpElw/CLr5tlFQo7eor1qhiGxfLlNpFO09QmMfLa4DY4chkmwd4zDh4emOEgQGWL5aVCHeVPqbcpFx8PauH0S1H8+1dFmM3dfgBogQkUVQqn6L1IlzsaCBBH082EY5w6Bgk7T/KaEk+o2aWBhFZ5fQx7bobVvdxCQisP/snZETLnB0aCJrdhbJSOCdTW+ufZsrby5PdjbFvHvky0g64WH0aWmRcXFwXvB+gCAPRGER9UWnhT6MKRfN5zCK35kijGyrmZvxiJjaQkmh80obNtYSOLp0mQOXCtAzl9GCKAc1m7Wnel99ykVh6ZNfjT66N1nyVgpwdr6Hm/cXUDjGYK7mUA+wWZ/TK7wbxYUQxoWyjuUDxeOyYxqIWIj3XQXmbeQ59nPWcrd5IO2oQ7yp6/TPtBA+8AL44SbunXAB2ip9xL8p0KCNBdc1OAIvRYaIhNJDzhP3MzG1MJzQ7+hRQ9Xybep5HnMfaRm1NEdJQ0igcqa8T48gQMFY79/M4ArEepoZ1q6XqHkw2Do0BJau6IKjsCQ5+tZEL9jJMSZ5w21HSDnGDYTnJ/+ReQKCwrOUru6XHH/SlaI0+JdPNpUcMcW+Tuz0ditf29++KeUbHl/0JDj/bIjE2wGk8Sn+/AuCuKQztk3LcOXw1H2IT78Oeyk2tKh4NCnB5OaVcFWE2loxcdc64dOpwRCPu4MAzA5QchVta/arMJOksSTuEg4u/z7eTe9zuhIXdY3bIUxQEEpm+mlhNxk5V1g4dKDs+DekBDswV4ev6tWm9fxNFEv3pc5QTUF410scEF8tKm8qqlYrHJI4+LYujPLf40DFwPJwi0CKvLIIrRktHHy9J+y/FDoKNpYQZPN+7ReXbFmx8qvBZzDqV7m4oPDZxNk7k2RDoWrO+VKmd+/HAVL8LM5/S3nsZX/83kopyc98gUHRoLxKtP8cZ9Wz6+7k9zAv2Jbphf2rtibDmQ11oFy3/XlTeL0ADxX6LYKve+LDkv5lWg2kxEhcMPrXF5kZi1s6Bw09hienMf/+rsJbFA+nSPJ8LXDQXi+WlTeWL5AqDPSY9XDJptKsTNzhWEkRYThaQP04Dt+jASFdhMgSJJ2SsQnPO1GZWLnC7G39oRwndMsQGIIUDTYvFKJonN5YvlpU3li+WlTXakhVOoQUotzywQ1dVqksh8yItRIFko5gTr1MI67fPuGYwxZ6NSMeEE3Zo7pUM21FnxKqgmfoa2YzciAGKN78tKm8qTgGVuQXPM+f19tingbI3r8E3vrbNhcUXUUWV9WZ6jAVhS01gsTlmPo2ol9TBYmhM+sKfVjCxZjdcNJcHS6B1MXos6KkNp225jo2Ygijjl2Va98kvbqd77YKIUl7oJn3vRMCNeEzIie88RXQbQT9xZn0DI5xNBWDQxvnikSUqtfjaoy0ErfBZU3li+WXkKjFtF/LXdQ3lpvEe/P6TIIVTaZPUGSFgI5Y9dMyBYzP6akY8IJOQl794sDtznr9caLWrdxxZXueiBZEPywmgUxci7/y9MAOrwkIW+eAzU3hfUKv3whJfLSpvKuaoNRnBhPMWZV4tIHtH+G0vvcGrrdfrIw9RHB5Uufuh0F2LnunieDMEc7fbHCnWkLmMnPksDoxkPmlnbc94B7hVkOqWva9XoN9/hvF5cwOqCC+WR/5ySP3Vj6FOZ6O48zPhaLUNTUVfVDCJ3lUm2idGglIpsZj1k4jI7Iztb9tVJdzulBcUV//ktoy1SfMmlMPRM29VmZhsyszJ18egoD2OqCC+WT9TrxtT3dOfv6ZrbyNd+YjKfclr5AoLiZS26cLP/Re9O+ZdA8MUToYTudG24RrYorq/GgQGtf7Y3p0L5X1bUxL3D2m/5LhbPkjflCxYjVN5YvlpU3li+WlTeWL5aR8Zpkno7Zq3/NBgdFOCcQyTDTwd5trrYAkLIB9lXHbKt36xNgfu3yRs5pviJyrpesSpvLF8tKm8sXy0qbyxfLSpvA3duNkt9+A81PPRBnpH4gy+jNhxfbdjm/1jTtfIFB0aC8Xy0qbyxfLSpvLF8tKiuOJbLRuYeb0wQESpvLF8tKm8sXy0qbuQAP7/w2wBScWwQNXvKKP5988cpChkRM0zcS/sIhZZ4DPjkQHNCI5fO5ABcqYqxu0UuFKfMAsQsfuAlcY2q9vXg3SWD22jSc1AYzo5VasZ9Yy2+IvbByJa1Vp6ChCRXMe3dnN/SE8gwPjXnORnp0s+rXwoUvuLrkXjYV7hbmlKLF4oEhOcpDisou+MEk5kxbvjMrb1sDPgx/XABMF0SzlpblqYG/YLqwEaO1WL2qsHDJnWuCZ9/wl/YwAAAPS314BEyG2vBUxSJ+uj9pTzHHi3F7v2R4uDlZkMjka/1wpBcHwmJlRR1/tjO9Xcu6GsjWpJzZdj0w4nz+0OB3BFy9rGW5u/NqogOB3BRT9KY+N9KZ+iqHWyk5YsGZKGDv2bCCEL4Ypub53hrcNXGk3QWNoFKSauROLvCw0ZeTQtgs1Te3Px6stV8mz4a67p5o86g+t+JND8xTuV5XjSIRczKTUTm/joDftHSiWTeogEbALq2k2/GfsyqEeNgUPD14d02NrfikTLtlAe3yXgvGzsj7Y6JWJQqFKXj3NryhSlchiBYSnRETUF2YCfMyMBA5Rmv80Mxr7Mjd11zYHSj6DfeQBT/w584T/XoNU8jYpbDjqhGlUjiZMzc8c+N40LZOT29W3YrsHFVA07tF/KKs2PjwpCn0aRJGjsw9zoL68lOzC766jRrCUomOqXC/eOtQclE9S4fngf2cfywZrsUQdV4JL6mw0lQvmybAcGB+tRUB9ZBqiZllYdMqkLdxF8VRVkQVAAAMZ5I3fV9sSQtHMFYiCD+4onetG9KTa6kILk5orz3mC3XD9vdjXTvsgD8bMuU0puvtfHy4lBtVANm4irOL/ioiaK4VRsgRzP52a830q5gNBh06Pc8kdeIsv1IbB0n4Yyc4F3wIpPv4ajPD46CyEh9Uz44NJd7aM6UnfFrGG+qH3Ae3ZfIiGxbAlHg8StO6jJs4Mf118wYq+cGkkGKFOOHSII2/ZqAAITAW7IwXbBPt8neuycgdbQBok1II6klXFkhT99lrggiwxr5JH+Z7p6zcf8ddZM07I6VA2tV+5W6N62z0+H6OrnyIbE0UCNl6wnPWWnwJ1wj7u2wXEbFUweVgQvlbMPiWP+oEknolN0LspIE0GV82wdr5CL9PP500TLEXqxgMEif1Xmmu1Odd1H2xPuSrkbF4ZsjArsy/c1xGc5kTOcvroeJX45XnBuCDUDcIlKzyy+kofqxbxQjojdCmyI4uIOeTmEx0carWrCAKDQpR4glWPwhWGkSOSRTQ3yJn0bpaZU4X3eHf044kyxJEHhB8qWOghqGoP9feO3IZWBa0jdOzAYz9GLUFKZWahU6oIEBTKIkwrz8iTmm3JUZiDIGos8gQmGLx8tMJQQIgH2+fJ9jC/okBwVULOs9i8wKitdLrbUyOYb0xIeUw4B110T9apmy6g/Ks15/YnwQcYgGWBlmTgQx9W9TclJmL8V4dOXzQxXs6NFnkB0i8+W6XfZKgj+otQAfUkQSTk50qAJIExwx+Nu2OpLAACp4caumkZxrXTShGa952lYYhpvg/a+MXJUaSuiO6mHWgP+UhDtbeNZ8TXYY5QhX5CFdGfx/xXRWJGmlR2vz8SyV/PAC4+METbfk5QHpRJptIy12tU2sDwgz0Tnt/VWuy8ItaVNE+jveBsmp4+2j2bm7twgefNPkmU31EcXzPul7EtqPFEMOwOPCEZzYrSOZaGhwE1KUJJuqCK+GicKl/f46sDcwzxLnXYhfSYw1TIlY45XaB+4tafDGMKYk36r80d4VfVFV0ZepEOg+ExL0xb3r6EP4OEjl7Dzx/Lt59BpagFEiEXf6HO9L/8O9Ulg32SoZCd1Q3AvBqnsnmRg104pvJv2w5loXTrPYyIHqvuLklaKcE5gUbIB3MusyZiFmXXUbtCMqsf59MfAcfgwXt9+REStOzXRhMMnvQiiJnC6vhmMz1fPFudR2nJMNZ/h61B/r7x27TtT0KXf+cG4Uls1qVrNR2WpzMjEs5RI37RiifVUCmd8UD4lLZAFdyobqNYD6RJJTtUeK3LxA+oHf+6kJpbzd1iTbg35AJHkHckhY+kfEDpwXgBKQR23cUDHoQG4Cxi43e0c65y3eanK6rwxcFSYBVVWnHiNlDL6zXUbIYusObTsiOhIkx9fNTtvJouYuMq+8RZjpL+7tuAAAJNpUI0S83Mlvfz7VFlsbIcoJ7pxFhK4mcRiamSI9m62f/N96jBH0aLCgv4Wv9LgTs1qKXHu4W8wPGldaaRO6iLhvFDsxaIBKlptxLoDGyjM/HbC+qOASJUbDt2cfJ7YAH3I0Xg9bvjbVtDAyqSgiEBPjEzTZl/Qglr2iCwGVVeqIowtjeEgIgsxPXudDvst0sEF5Eec3D/MS/3d5lbGuPKDcqV4qsJ+thYYba84e16GX45iD0Q7hrnU4FNw7htdzcPnzHBVY7B//Ds/EfFoXalBnE/svOtDSZEJNotjbSey31Yp8eU6fIYmcHWDKZh0kSToeU7xMboERDJBq1QBpBzbXKqv4Z3B3ZR1tekGRlP9V1hIhPvOj9Hm5KlxDkjaeAHdfCB6Gt1L9HP8Aa0uBe2xOwDqu3OXv/AF7GIFOb0Mt1ahARtDtvm2TkjJRvSTodEXHefTPbeYHafbrST8xB3/Sxw9KY/U1Fme90nyEagP/UwMR+wmLZFhajz9mrGILDsuXQo3t1peWp3FOsN/HFj8G+L7zotQ3kweEXmBC9S221FPXYxiywfB6EpGHhJ33lIAm1ToZ6jjyPqM3JBBRqMEwyvz2J3R97HmGa97E7W+9CEF6lKh2rvnJ4iVTRU64r4WE27/ihf06bV0CHzh1AtTW5d0LdPpk0BTmhYFhWne+os8UqPmGLvDu4hTT7PmttlLAZTERugCOM3HUvBJeWoLMuhm5UTFKrPoI2NzyE5NyUxCj+U6s0txCW63mpZK+NCD3jkqeBmO6fQtrbtirQVjKUOpy6vYlLdTRvGHThKHBtZCQ/7/cICkJZALQWm55ZD6HW0CrweCTAODMCT/bCxuALA2QRtoozM9qG4IigwmK2H4kNSbYPOOaJC89ZlOtD65NDi021RwjIjS4K8hNizm4u3HfFmR/jp4AfOAVDhgraLPJIDmsLdUiOJGq6mRBACX9HP0Ayj6qkYgg2VRD9Gx2LSnG9DCf+AFa6smTLfjrP1LMxx9GIeZ17utehLVq+HK/0UfAP1SKOoHszunlP9p1GfX0oBdit3fN5IuX+2c52jKeGCuQeQIALFDJb8efRvo+gNWwbJH/PYXhuHTSCLx5KNw4a1qz/lsvUHA0BmxbYD5Rg0XUsP4XR6oE5WvfqgCU6cOdZs9/BtAscnQzhf0dzpCUddSRlIf99NJfAdVOTItGjROOEwURUfXu3kFsuzyA7oxDEQrpH7uQDwLSsgw3J8QUXXp8TCUOMK5nGW9V2Iuu9wWonlcTOjr4kHJ3JVwLCsyNSq5/5752wYqu+0mPg9bvSkH57+hWpWi336bBtPr0LOWZQXC0X/woPOe/sEKLuKHhb9W/Py4qPUGMdoXcLOnds+3dI6OEuO/FtuDNZ5b3Cp096uagehQeHveXrNJqG8Sb59apBXBBy5RWMOQeNfH8t3gB1CX6g9pOC9KLhVK2LzbHgFHiLS9yEvprfeuPD5VB66kB65hZJsL++4vkYdr/sD62u1Qx6sbtD39rPHS3VtCQsFjuY0gSZsfzVruTCjE1E1CorQra+D7IoRZCwKq4S7v1CqC8c0dBAcf+gocaLdUnVnFR4P12QjjfoAlMm0BL6l4tRAaAp2DELIudqs2j0cAiFzKyr8TQcBdHnbPDXJSOzDiVSuPGwsDl0kB9VRQxsWB107jTiF10vnJQ4bB1RngcToPUTmDp0HFio28R9IjgGf31vYDrNQ5HGYagcz7i87GtG1sQLH9K/6sStv6OKlRyYE0rY9ljeIw1JtFfU4s2nTvdkTUy9m+MvXHC+f0wSGaeHGu8Y0asKOJEQE8EuPECJS7Bl0t509KSrzfyWiqG9esGncmEq9/5fJ73/57Ol//XvJrfG+0Svpn396QQ3FGzAyho8pLMJL30zr8c2pZXPvKu14oI25E9jFo61GtxUWzHlx4aoKB5aqL+VFNGodl1UaKrPw+p3hcEVQIbRJAHGC5oPhSOB2cRlx6SMPGwB2UE0LWjuqFmDcBAC8ALikvnBV1oIY9GjeUegBzKHqa6DJw5dHz7IkJaHmELYnWNbdGTu0aj97vCTvaDOcsyHf/msENqk8XZv8FFY9PoT6Mufr6iTBp0EHKi5/rUsBGKPN+VOWU/GWuBPEaC3MJOT+cMbBq8OugKr1pEHd9BY4GqsqMBVwZn5cW4LAvScabdTZZSiZYQuF92achM0F3Qs+LwpNBonDoBMWTTEzREJxb90TzOFkzhr28gF0JWVTun7YRqpMXYv0juvY6EoSlmP0LHlrvssqCzKircoBJIjVcucMvQ2r8X8E3Cw5bFaG19IsEc4GK1Kfk5fdvdpYbe4P0ofv1xGqB+WkuRNT45ZOisHPaDmIs6u8mlqL0vp5RLHQ5dmh649xa95G70RcQJjZDuFJ3gWY8SsNwbe0sC4MqTYrIa8weyFwQC1ifP5dVRLFRsRj2mwpn5mXFB0O5RDhawAMGKtc+F1NKszTEb4sy7m1r03cD+c/6G/2Z5vKQKMbB4KI82Z4ZMk0w//VVe0k4I2I2V3vPNUDZdhdtC99xPS6IGSUnVRhiArJApFZZkpb34Kg/4AESodkuq2Y1jnY9uADwNvw3yV2lyfWREtog4QzUjlU2r1rkBD08AF03I6TYPySXsuj2f4uy5TST3u5VqKnYybMAFtSaVGbjnuqIIJ/otZ3SYWgCmW18qRxt8VTYXNcvAJ5TJ7/rSuJYhQERZNQfhzninNDm3/EUQ61olSSjD9NFt9uGd2R0TxadjO09oHxOdvotzpt178PIuG/4d4qMJPGLTuSKJXY+Dl6Vv9dPEFRW9jURdrMCwiPJ9eW4SQ0jLNAIWBcVcdFx3BXfNMRYchDTkKPdLsSJKbZcyYt+wMGTUMegvXWo+lAAALGi2O0eG6+mXVZYB4llIr5QDAwgsPgOxrQI9PqmXq6MwVqOA4hqpEIzhwHMPfSA7ggsjkHN7xAeOOZJ9tul1qZ5qG5NG3ZhDpFTHooviQb3Ztwdb8ajvDPq7MS1rx5dL17PqFAIMHF7EzU/Ofr9BjkoBmLsag8DQ+MQopeR7VhW3SFb/GrjgJrLq9Rp5oPk3Ps10zRMeZu0LmYdN4/l2d7skis5xDOFQPm6WRmkI5Of7BhL3chufciX6+KpevozW//Dz82pOQyjYsc54eJISYvmrVEckF3mrv7hyzQrSyFdikDOjgzj7v7SdN+OdK6G7Mv5PtVpXfSADWlO0sKXIwylP4UcdARiHevpBINdUSVAkKC9nIbAADcNvOXVHRQDIc/6RXpG7oCxIGKjNfoKmqs8f10JFMwnsPdN6MGD6p9BDmULE8rgS0u4DJc20jV4dxugdxtwv7gMliSqf2SZVD4RKf+YmDzihbuBulJG1WD8QESdRiT4fQfG1bkWResp0az1TM2yn3QHf+59kMnm/rVYPXs5AIp9stHsljCxg/P+xvd6BW66DFAp69strL/DdgukB/iYuSTqgECtckV9cBjP0NM8Bu68xoxdO531ABtrxdha02NKZuvQ6D3E+Qm7gFWye083z275/ZlbX2zhecMtkygwcQ8Tj726LCYCielW/KqxmyRuS8G4EkYuSZt9kFirw5YQAoXys1/aQqAlz0ob78RH/f2stQQIzyVSPKDEZF8H9jDVPbVlsJztVrbGKRuj68Oa8c3AQdGlxseUyKjROBC13xzfYDF7rypNByr5DhfbdGVpAmLrd+dSoCKyXeCqV45cCo5/FUHsHjiQzUMjx0MySTQFpINkFrfUv/an5PUTE81S7Od+l6QR0cBhMqQRPV/YaoMkfx+XCqi+EyXLB2AYATtm+6NYUVcgmZanVNRmU3q5O4JUOnoAJxUagzpGaQNKG0uImIqdub612YDL977ypEzBMyfqmUjFSJBxf/v+l1ErVZq2QgZQlZUjC9ooV6t9h8NomInVqUpXn2pq1/QQUy3obDGkNt6bBMmu6xdyJUhkQ0QUix2p+4Mi+/7gE7+KLqO6jqglD9lgsRxIKaCaJGE+PqL6KuBxRzBSkyH6jpYrh2ho8Xx4S4EhfD5q5HUkdoaZ/fDg8sxfEh423xgMv6IT6P7Y+emn/WsUfHf3d/mVkkWTOlGHssdcWgl2XaAuN86UbqhQ4AjotC3A6A6Rw+nlLlWZGdtvHJYwcqVrNmSSVnfWtrl8Xc1mXN+rLSeCATvKah3YWj8Rz7gre/sYSbd01ikKUleGkes+dy4B3JVuXvM8xQrjfaEc1EYk90lZPsvSAYzmPuSr6041jau5YBMQd4VAAOkAGZjoYqooGPaZK8xmfbGgUXI16ZvxKu7dV9xE3VKH/X8OMGZbVzYUyEobKPN3HySMX4g8NqGf7pCa3t9NkkI2y1iiqG7Fqbhb/9c+fokuU2KU1G+TxIy5gvQcXkxFMznaRoxWC9oNfZPgEFSEyEpGbjmIs1jFeSZcgYHJqBwJFQhHKiNHpt4ffJ9oLuBXNkRjh0D+LkYQ9hI+K2AWpZGKeVWLTtu7/ag8weNqcQUCwIU/ptLt7SKFBYScZ7rePX//DQuv0Sb3UpAB1Lj7V8RWf/xWHfvQNI+O11oG755pPWxQdII4ojhxFxdPXmxqUfQTASEy4X06/edR7MbOEIZxPTI19o+BvvVLzs4qkDlouGyEr49rVPcNwg9I+2Xv+733cc6olnvw4zLIylbyNbkY9GG459eiT82l4sZVfkC2mfmejYYm10qyJw9DKujE3ic0YrzqFyDs929SGZhM7O0GTXEWeqt/IfaEGa/tEYlwIVaMClIthSlHfQTj32M14wMo66U32hnmjRW3JKTnACyHY7EKDCIh9QcefsNg8qzVtNwe4i1Xx/F7hhA3K+pdAtSD9Jz8WJh5uIhhJGSg2ygGbqoVgt5B0PILhv9VrFMJ/PAKvQyTAeSEXbkPB/Vbx3vZsIHY+L/dEmwk9nAtq+opvOlJr4bK0mvKYvhPhitJxRQKYyyOyT9LnfkIaRqx9vAm500TkKBtE5AezLmFvaaloWtSC4cP6zmxPxQ0rnyVbo6JohZ768wK8WqbEd+rNp5YSh+CtPEbZ3sXIbijO64tVWaZDfhaWYtNiJXht8qLFtmEJPggizWAU71JHWsvHYSdEpd5JdE0pjjfThxbKY8s8Ppw1GlxkMHrLTs56SfKjlSTYlBiFZ4DtFRCP4sRyurlQwYtHO6TIiWKNw/mNwUT0yIwhIvkyP0gHHa9CAFTSN7SUcclTJByi9FH10K41zYQh8sLMhKxLU9w1mA6gKa/e67rFBa9FryXKHEMCl+kjYBC9toVjrj00elZXhJImqXXWOClfdG6Z3h14R6kc9gj/A3GqhovrLGPQ4uogjlC0TyutvWfdZynqIdbz7YIjm0R8/hyNhmZJRtDXvqfplee9JjObG6BDbTqW7DNIacPqbQpTx1iv3BVcWo9CTtDUosyJXRlWfaPBVQCaJ5lXWyTqrnrgFDYC5ai3v3A61MF7y97e2JOoB82FNsHcwOSgH+aVqwRcwuS5HvK+o9fpdjsgp/t5IYRrSmjzc34eTxhAr//Rkb8dAFU45iU0aMsKdjGF7Qv1h8qJX+Md0WALTS6CsALqMxG0kpquEhAzgBrsELWOpsjrMP6MSLHaCmFKG/U1ENdV2Pa6g+b3fgaqoow7+MyIIrOnN0JSZDHwvP3O4Z7sZddfC5xbDvpZmgesOGnC9OBL/mbo0BghH0Na/aWCGKBpMeFTVsNnlx/M5QSeobhgQHTm65eAJCBjXUvdoma2e121+5JH1egpL1evNlCwXKAKnlI+luSm5DWGwOo7QVbn03XrB5SUSqnThLQzwkD3EsmZPkAc6YSq12ua6GshXpWZ0JTJzd5ZCcXbVZp17b488uQq+IzkSVO2sSBeyydeZFbKhghkgcm5noAfH04Gq2e+MDW87IyalFP17QANETtuVgVgNLOHePTHze5NymEp0wpOgB7ES5DcF/G6s6s68lJipAB/fMbjIaMXZO7/40f6oO3PnDZkw09jihjFVh08nnlRybJShI8ccE2o4tqNtX7cpZyWF3AmVVhSODnrOYv7GIJJYhUY+RNYY/ZQrUm8p3ZvAgk94QwXrY4O1zM07Iti2smq7CafdtqSHKjOCIF3S05x1OCHj7Gy9WtSoUp8OehsNlDgi+/f24JSz9nIMtP6vC42Tx5Yc/5AtmDsHnBaoFIybuv7UVFne5uKg7iwi5vnwoJh30ZgNw4zEKiEWBEi8bK5Gvhaojj7LYSEBOC+CUwxzVBb2ta9hwUxy4sIEstW00aFd5YEligr0J6mJ4FpTk6G8m/DqCSEihfn5TJNuD7SbLBckRm3sONc0agRWVWkqvk8wrIE6sKu1UZ0az5y6OjAhP+VY18PQaRaiHjisIJKo1LJ52wamxo4Wb2P9VMR/HTT+Zwb5/Ltm4l+ktdg6//DRYclTu8GfDe7pxPn3vLEWthjfDKAhKJ7XaDqBMpp2fuwJA2jQyIy8cqjXVkeLn2lTshpWA3AfryKA61yhCAuvUMhT6Ek6uO7RVHUXPAXxfVGVXovIAwic8RgzwIj3ltR4l/mtR0JxTvBcLj5rKb4DVKwhuy2aJxGbJqyVhIGW0HxflP7upd/wF6j7NSeIGMhFaKj6B3Sb3ZFdJoNsR7eCPZfspaaR93B1QZKzlxEyPB309sZ3yV3MXKPLQc/6/rbUJc1KCradgoco5X8jlQw9EvadSumRz2IlX1jTSg1pF1lc+FoNsrQ53dGC/fMp0+kdjzIBUz+8hnjwNPLJ750sCkfxoaRrnweybqqp51bVG5au7SX6jxgP1hjCHbdpp8GJt/7Wlw/ALFKQjYyvkbjtlxoEl1ioXTP6OGur8uMaHn8X4vPNSXhfNyAJkHFmzAh9vU4eZf0jZSzAY7iYE+ou5qhLB8MsaqXneYFPGltonnv2md/zS6oV+R+Yj3LZBG5pPoJywM6x5b5Wdbzaa5NuaqsqSZrtRh6+N7thxcHv2hRANNNgQa8oE9dMjhjkAZQSl+qtBjKQtRuaQ4//VIK9tNAgFED2e4t3CiGc5h2Hw15zmgVKwCF6WwNL369IKlY+BZZ/U9GzBIoS3C7brorc/SZa9mh1HQyMyO36wq57ZjDvbLRODiz8vvPUdfjy13QHNYa5iGCVzfWB3cah9pG++HcjPCZdq6g7M3s30MjH+L5HvhiLC8p7ussIx5+QYezDCgNJdSd5d23UI8rn2sJepqIeHyKL+V7p7IRqNU+IzkZ32n7jWlz8OWcZVhk5CeR+KX3MDXmgzSDfFSqs/FgAGJ2g5xGyy6Gnjbl7eOZLSXR+I9PG544IRLaSfNBpOvkoi5pd6ZNuIn6IfA5k/AUkK4VHkXhI5vl+IjfRmCugPkI26cygpqUiUuPk8YgeaC9UkOuQeZaZ7GE3hYnH7RTYtiQgEsABrAPiTtResXZVqVxqVSXIyETBqEZ8JAYD6ohH0HXFyXV4AKR1xtuTs0WFP/C5vxr2cdmDzDlpCTQ+lo6QnpLDUZj10A0btdVMBx2cxpsr4e/Seay686N7DYEuw6j/+fuA/QePcY/KidoOz7iYDPwpPHu58dSQ+JCl9/ghyQTuWhNw+M0TzaOqvCeyR2Is1VJjLx8myB1RXeGsISa/APLdrShacBGrnjmWwghUafli/ZMRM8A6HB6ABIrB9PUE3+9XyIaoOuJwfN8I/N76ECwLTahOybruiMPkg/lNL9wmyFotUvXJe4R/5/00j6ht+w8710wImXKpSHqx+sCLGdkU2DWFXS0WRuqqPj4D34EOyK2wEfggTKAHYSNYKOza/n2S6uCGV0nV9Rwb4FDoodIAegeOEgEZ0nYfrtc5coT9agKuSTWUHmYCeEAxQQ6rJbxrzlUdPpRojM+H1UbaZm4l5gDPm75TXIU5uuw7qTQ1ctO2Ik4XrUKmbdvuBmMepz6TspeErkOkvUxOoQHu2lwjMwm/9uV9KqX5WvYILjp9Z64vSwYPb+B+BxNa81e1t4XnDqb1c9TiJm9QpS8qFerZLiEfjSYohTDKrg8Q7ZpwWEV5IOLIK7DN2QrT1+h6/NmVtrEz0EhZvBWJNU4OTg/GOy580IqrcaGYaZbBnhqexthEcDySawVv4ZziQp2pH2KLIVFPYYi/nvPcEV8oGzzk5BAEkVH7DAnoJ+cJR4+7veYMR8rKJoPSqoGXrvM7TnNMKBkXcvgqjle2Aab+gNTf6y7V3/tkmvxnDB49CSrRrSnA8rqUazyjAs883ib66U1Nh7Wi2D28FPxg8TXI0zyQERr2si2YPL8WTXz/sF1Y3HecVoWz0po/NKYQ52UuJGlWBTKUmtyD6NGYTmjq75+qLAJPULNBqbrBfsQ6tzrHlIeJ9uOgSFL71v65mVC/HG6yzuGyZaWafiSFNWWCMZmCIuXW9hRFXUB9iU9MLfRuRT1zkm5VWMK2UNly9za2IRHws/Qpf0lFJySHjUXAVf+YlK5LcjPL4Z5oTt+LIVKkDXASVyQ/BoMynJ0KWfnki8zwvx064zh1+2Z7zr73nEy/awt4RBM+BvN28Qrri5BzpisjfpIpPdF/LEjMzUgHUAWnfUo3M/T79mH05CsCRSliTkAP5mhI6GiAqnl6Eve52jR7l8vYvrKXiZMR1j2vO7If6KY2XbfurGYphUWsh8ucMr8YGQlsDZTeWjHAMB8fjIIlY83HdupNfYDT0Z/ZOgwDboYWvhVMhVcKI5BBkchHjYela7Zi+FAq8JPahkxaUplVCkADOmZe90No4H9p7FRyanTLmka6oW7NIuauGUlOJWt4nz4gr8NoG3j+khgJRBVWjmHlEG+fnOU03KLmZB8H+xaD3BL7YFDTMBNEmjx9OUwXbi8oG1RSjyHsobIg/dzxjgelIIcAZaGfeqxCG/qI7Nb+S4OeSe+wQFxyA74IAYtv+AA9LIPDlua4cg6YQjPZ+Fl2Ioy+HnKD9dgfp3RyUxwvv5MHWCX/Pj8SLHKWLZFeM791fWr/8Q3v0skKIQJfoZMfCJWsDHpCiWJYHBGiRTw+3joakBLJwb2GknkRql0ezgZaTE9rpaD/V/1F6F+iaF5o/bFChrdQ9NyBYG/wq+en7WDqbLQfCzte1wptrSd7hW9duFC6l6hp2PIMlpn6mgJXWh0hb2HpM98mUPz3SLdlH/r7WJiXFImqvc9UWJh0BMQzoBwpa4jU2JoGcfWspKUeNO4yrgg0q2Ia0fxL8a3hIq8j/HgJS+GyKTJOid0Ng/UH374ugk6c+RKlZagAnLgUUsI2+l0uE1ahl0W19pO3YPmJQWH7snHir1b+PndszkwmLjFcOv6ay/7+wJ+GE1+pQjuAjZBGIJFKOWFMCovbuABBC0fMhC0qfg84mArQ619HT4k7YWBBE59dYihPk0dZF3q5aKtBQXqtDPskV0wxKwhpo4zeuPxQ2UeqV/VHOHSavo3C4kyabor5d9tXnUzKBNWW40pH3r4J1p4GCCzbbFhHwv+VzQyfrT7WRCNAkybjOZzOupvR0m+cRiKLEeTNTiQlpFN4N3tl8VO09q84LGylP8YAR+VVNvI9a4+yfHaXFdmqpfq/BdFJxfOpBcreJS2FSFGOQ3emiS9oR+G/0oTURXIqScwue2R50kJU9NxP/5qZbYFhEopmNWHLWxFZKN0KmbGvymiScIMU/W+K+QiUxE5t2kH+fO8oNi/A7gh4E9OWZnsIxtNTv50D4JW8pPk4nS3P5v0IMZK11mFbMabiTR1QzQRcJZjFkcudjtoHFduKfiJrc97Y3JVSSKozGo4eZdSp3dBrc44Ab2Ga+GF1BVkqDw1/hMZfx+JQhhIZjH84MapWOk3ufu0xNMocqKbVWZEidRHQH2TG2cK3IUBEvSqCLeqEK5wPq3edIGVxYlHgdwxZd8DC5DjtjmaCkAzE/9VRM+K8V1STGMtOgc+SumvVl6XQ7SFWwKE/l3jf6l+Sd/FwZjsY8jjNge7GZ+ZgSs8MBIXzHJyi2Ewrb3vhbJI/3aGxhqSNIxePo4nmk24VaqMqX5s44sKCAkQJLiayC8ufboo+EBywAZekWvrY0bMBgMNb8oDBcRBAZkPHeGBFmrQohPX2/kcotew/jnLVtEiS2zWF0o2mNy7pS8kLXG2W1p2eszjweyxV6hwFtRJOUewoOeYZXkOFCl/Cy5jDq4wJw5hso9QsGscCgFd3OwCvw3wTH76I8+wlokNr+Ofh8GIk9mNX3nk6rQOHCgonwNXcV6ZAqsAt9+YvK3EbL95DkOKnkmkqDrBDZgamVyq0PExfhaw993Dih9oZ7GlkQeppyi6PsB8iLsc/x1qlf4aOHBiwuFA/XCdFBVLrPuN12fj492NORe9JFxkbEnZdlXGI7oGJOmpdVdeg2E5AgdhjgDPyqZG0GSrUkxj96/MgUc7e7UaZcclxQSXCj9z6QiIEM+ZpfLpzd4/FjbQHhyIrHDHQIcJJ+XSZKnfQtc3jrN7klinxPCUP+TLIcnF3fOHb0v21YkZ7Tgo9DSJ2b1g92JMeqcXscZjOpGOKHdyTh6shoG3NjeLFZdImt820owz8Ylk5ywUpCdbjgH8iQWZOMcCeKSYG6OvkqHObrgZQ/VYHoJHf8HcPj7aF0SwwQWrvKNSQ/AZ+9SKTqJIN5lM7lB0FZAKDZFmyj6/jjV5rNbaqocMephUFshf4UaYUnPhJ4HQH0j8piWZ2PphgkpiNdAP3YN5rTF+eLgLH/Si9SJb1wETdREGvIoXIu+LBR/Maa9F+7IxAn81tI23wtteFtqW5fq5cVzpXzWAsEKk4ailgCUUYaiYGxMYvpwonip/VII30asW3k0tQxHeTbgBZZPe7V1Jxhf+XEzEnIOGnjlPPoH00u7AGtFnFsr8ZccmcefwOqf7lvd3IMbTYZvzmD6c05tVOaKuLrws94o6qmoFw2ACN4gQ5JPhYUMqutIJQ70xgDMH6NTtWk/2V2TuM6zynK1UJh7rUgMzT/LfLlZRZWREemm7oDF4Zhk+4tdXftyHpPTlcK5j2oVvtFygXiignG7lEHn338EAqQFr55M0l+dpwYlyeFrFw6VPFRhOemtujsCJRmlaJLB8yyracttWCR3+8QKKV24BCXRnI1Ddhya9WcM20VAJo+TTCIuZ5L8M7i11XkDJBLAuYGB9AaHcDNnaZ9J+HOQID3Uvj2eYPkG+kX2oR3Zz+tSEQ35EZoqJXW52YeIkF3p+ZNinS+Ydfz7zaxTjDN+t5Jn9tCMExXfMpgWevhfyHlqkxsePqW8fqeEitcksBaqpg0Cbyt0crW46++rO2jmuiZrVdkQVMDt1qMZbQaemWBUL5DxiOtniffbRIc1fIYTTYEmWcY9xvAuIEnSYJSWR8Z3btZQ++fJTBYf6OzooipqBTjVmwLji/+CT9/4iOMA/s6HEHpmP5hNEuVrdHD5+0pifnMICYY0vN0OjfS+qhjnVrZzv/g8kQhc0aU3NUp0v7k/R27Bqk5a9kJ0F/ICZHdLaYmfEZE9cpv9D6LxqODyI2PACTAsKYscnh1ZP8nDWDpdyByDYGoEoWlQWq/OOPBMlUSsxdzgQJ0AcEsTxxGpNL04vRtgf5+iRF6YcXZBoe/AFROg5ioXi77JcVRQTGf7fgTGAi1Pwi3wlkf7WU6SLcEBjIxvqK2l7Uia8lIf1vBtPkA7k+mZPgGoiaaHe8pFtlCvI5JgVq102/SlzeptZNvI6y9EjmTiGKOT7avXjmLREl5kN0LQavNS1q8SNkDLg4imTe6ug+LD3CHUpY/qIkzHEteOlMc823+RyKSGrrwGkRugzDRGU/nAybMiecfswcd05YgBbvhO500EVr3ertkcmAg4l2ErRahc8Auy/w60gpp5ZPvLSB0WHGxJmWGICtNWr5d473YjVXQ8l6wKYDIMY1T8iMqJu5fJiF1+l9ry8tfuJ4LDSVDxwOp6yGi9Mweug2Dk/aEQB1cB9a5Hq9ldDvvPnh+FU9yvWgwJ4MHFjZfRoL2ZZpXMSGOO3R8xJktDIgYvMKgMFEOThT/BCk4UzwVXRhtQEnm87+PgvzIjHSgepTnc7ZNDKI2Xb+HF/0/bZSGoXXp2vQRB1viLROxX+aduN+8w1xZ6kzLnj4tUwgYsZpUKDgT/9KkEf+aOOA2kAbXWHU/HthqZPDhPggN7cBSS4stdakdeiPJyY4Or3iSESLzvItAL8+gyaHXNMkWf9tMdF6P5Fb9vYp6qS4yEtaHs6WNAXZOsbx6d4LHju27+/BexKutKUqDQKi+FrqTIPS/f2XdfTTb6AIr1kmELdJFv+z0ieDdJLdafi9bNwcgXDKFEnBOURToSgoTZMQSqiMCGUmuHkp3MEtoApMHmh/zw7yKB/6f+/lJLVTyTDBxMemv0w/MCwRmpRaOId7gpO8XQ+4OPjCS5NYgMekvV/Yv4JF5Nl1n+vee5hSeiz3UTzE6xBlVWfXJoNc4KE8xyqRrMEcM2J7DPrNX9kUlvXmysMbory94zYZCoX8Gf4gaHIHVLHlY6FqCqlCLqW98H3N7D0CG98JGAO2jpsjDDNDH6XPlL3QkZnwWnUMhyAbw7CSBY6L86UQLG6vXPf1hb3qx02Avzbfk98V2FZ4Se4aZkq5TjnZ9iPsR2wNToax2IXau8zBTlupypusNrS/yahFIZeEgkt/OY8UQmnhG0aPZ3AMSrdLrP8uvxXd9iVecblRKNNPvNYQ+WaI43wbDAUcvjpTxIry5TRUpubVTaLXUMoe+/GfsdYZFtY1LlwT7Z81ryI2f8dfFfsH2vZGwDzlhUS7qA8d5KCIqdFurz3PzbpCEStkgaRH5wmVCk1lTKZZTtilojpxtFNva+B1SCCWvCt/lr0w7pBEbBbmHfPZG4yvBLWee2YKIaoUMovFlTkfBa4QoSMtmFAXf1igFVKp8HSsDcmf2N6zxT9itBlKg6SFlYFEJd6cVm3zfIN8a5mzxmgvWn02VpTA8o/0bPALvRXEImO9U7NdAJUTJuNd7hmZJfPtczwGk5NbSYl/4HbC7Xh/8NPoL6/aEAMYqs24QGmR+DikSr9OW+bGL2XVmiHMjrD0iVoRyTOYl4QL5s/sRht8137TykNKzgO/XFUGQCzn6FlDgOCgyM8MBm53d6YklW9mpALVt22pu+iyWMYGQhK2wODSJgBK8HWTfJaArXRa74AnAdmZjxw/l6C+lqsFupu9lnN9HsFI0uaHOxtr20/HoCRun8rgRLdRT9BcMvI9raZroH7euO4TSiosyPn+se89s+ys7ahMHixpYmsZ3OT3QriA2WUs2bRaLS1IgA20lbHzRYSt+eJPpDfkQFNF+H5lyM8NxDNVXLceRckP8LQd8I+NjBvYaEgVjECJLK8PD+uBkfld5dchyhMHhJrCTotwsPPDYmPIzg9wZt9La4gJGMFg9fDBpn0QklEG9R8ukjp2oRGij+rDobbT19U+wsfFMOdsTVAVwVXTv1TLNsYJHfQvXDkanAYXLmJ6HAH9ohPpIFT231AAkl1wpinMDkoz+6bwbJVcWqeDQgahey5CdwTCOoKt40WHYs2H6Te431rG1pOnwMj9JzLFTK7NeYXIIyIpebWSDKiJmxT1i4Wo4+ac9wMXs9j1euygz8XxPPs/IOwiSxr3tueKAFstkOwBZyP12xoVDz9S19YxLlVA9DKWPxVnyM/9IZ0/Eks4S/eHvv08kVlmVxNTepdkjWYF20EGA5prVG/sU7nGp3d/qrlhclnVzPapsYEXoXxuLIMJc9YpYUbRSjVY8sdpYPjOkEHE5TKX/BT98MeHXVEs27GQv8lhkI3hG0xgc/azXHky2ufp1O/uwF/eYEixnrg+laQ4d9rJJkPLbwHSdZhk81JEtAbth7xhNf4IqfsTQqOv4imZuh7n4ntrjuMC/5fdis2ev+YnVZwDsmp7uAsghgp516rFU5HUyzZ87PiRviOQUel/ZU+kwtCLOh5ys9jQ6PmmDySBShoHu7HrFiISL9PoiVKGzAo+ifI6r3pZt9UvbjGgIqONNDMhmt5PpjjiABa3EPJPPtstefNYS6vKwgsF5OqdenRIgilWw5gGuNTjBpCX89GfWGQ0tYLe1ewN8sYyRqDx6Apm75m5Z3YL0SbHyo6+ZV1uuYy6+zEtAIICC7IV3OO5Ij0M7OltQjBNPb5JQ5Pgh83azBnHKqfQtrvYldqG4Igj9YF9tLQBmMvgr/MA5FnPSaf85vs6O/QK8mlob4qRYv4tPbg28+3GsXQfjFm+Gjzs1NVcoJFKGeop1pSIMkUzr0iSavlW4vtidvlGMypWw/QUNDWQ7IDv0J+5SLUAWqmiKlM3PE0gpIA+O46pwCJ46qMIeoUoZt/TuRExqoHmYoSYfJ9DxaqJwIkHjctdYKpZqhD+Y6AeP80hGHzdsX1uIT+q3X53W0+Q7yXgtR5Vr0q0lZFWUORsCQ0FwtNI5FkpEwXDCIjz3z98DQjO2HJmKxIhRW14TZc5MhOgEDiv0uMkkZyp5uEonjR4CySvYPyCasq4t2SVmG5Fw69Ft2UXxf85t6f5/mCwlgc+qzmEKWM3z5vgdXbqwPEI6G1YJP2j9/k25aW2VYMqrR4r9f1ralQiq0/P7zNTOzBrap+Hv1EOb7o3pPMMt5wSdKasWG8tKaFFEfTuG9or8CWchewH60wutCHKRWs9xC4k5W+1bVHWpQtHZWlmUk49bajgQmw+JPXpaGIJlbF20qa3zKgGAVjN4eZ8yviYLbqANpJkQzJhk2PLlTnuGddLNQ2RJCkJQaSXIZT1las/1BU5FVdpxycp0lLWvVBEf0w8J6Fjrjtj/Ry+jNctjZFVR6FcLoerKLAUbThyjqyTU7atACt/79DcpJ8CNti2hX8Drfn7jTztaufKc1jw1GRVlbVsMWos+863TKFNfjkPSF23nl9N+9PJjVIAMptSiMwGTL2GFYccDfRQyiwxOotvhzMaHittMJcjDaxyx9GYMGIH0snXpYVAme04gQe3nTb5Klj8Y2FxL8GoTvZKGsaR638hvRB/0rS6sYS8prWczCc8S1xX/HTT9Z2luVHtE6rW/ylLKdHtKvmbtKqirKHbGgtYpliw2Y0lIIz0S/Lr/l7426HSygVZIfaYywEBOF5juO/1HMeo6JebO42CExwriwFQCZwnRJCAGHxg5DCinEeAk3W16Fyp8vzh3uRvfe8sjcSYjPkkSQtoiZoZ9bGvNnP+IF836+vZsh3KAKGsdOxC+VtgofZExZTNmVUgxlZbVvH8vCGIna0k2uI5DkSxWOimaDDo7hYOMgzol8Wn9ZxWmuh2zxCqECk5ySWCsNeYZjbPMqfdxJGXfrdUSRld/Yiu3Ly+Lh60dD72MTg6e2pX8eyOxHSjY3CFrophYaPccVsKDqx6NevH5aQWDjO3b5LqSsOWgKtyXp0LJT13kwmiKu8B/ly6BJdpf7X4mVv4Eew+FrGFs6tyBp4xvfLKU8KiNPms0Mfnwr7zi+9yug4wPCJKTB3LmZOSmNfmRK/S6uBkzOXMQr+EwjZJOUJP5iklTUvUw7T7f/0nH/p+P01yNLj0tZIdHSheEeu3Q3/nAdrgKus79YBP7qsSPouEWGeVVDpdYvmvxcuZgP7PAOQREMoZO2EezFoQIWg2Ib0PSgACPwQvgs1pOI4Z+/MKeS/hCiBszcqLwXQVDTYYGdLFX11nF3vxESNHV5Mkwp9IaryXzk5Qt+VNBLdlHeHRN1/+00fS8MM+Cxn/KW++tvBwgH7hyp02zdDaVJHdZoFD+ZoOZWWfm7KCfm50XqE0ap57jyXzS7dDR2a6MzSxSFF8VjadDlx4tBI9Rnt5DipSK464bgxGCKwXgZCQkwp8TZX4bpLJvqGRoWsO4i2giJY14n4AQzIsFhJP1WJA3NAcKZCMhN6osL1bk8DUkebp54ENkYyAlC0nGwPOTF6tK6/42F9MXciwLsY6dIUnptZtBTlg0FltRTj34XZmYfVz3efpLmJ6WFn8kSOPFIDM+fUcW+fWpkAcAaIomDzULlsFq5Y/+ilXBWE2kU/pASXHd5VQ+io9E5zRn4MVOuWr5P1pVTu1cn7fPhlnPnvbMQmPOlbW9sM4NHqrSlFV4sLUgfT8yF+IO3SdEgGF96fjnCa/td0ijm3/0l8kSgCV1KQKJbEkLZz3pVrHAjbob+XFgWckyXmJktsfCrLpcmyLzs6VAPnnpDKLx95rL43ZJ+aCWttY6SSK80aP6VqidgGhYClXsZnHSBeQMcXdfbyPw4kB14WU4W54lkXNj3d8Onu8jF6q2fGBX04vGXoFohRaEPy2x1LDSK8onXDCIFbNcD/DKMD6/DKSWj+iJenhedkcAYOD7ULl/yzznmk60slgkeatKbQQTofNYLldP5PxxbWAzv09hQxBG8Y98sIaSTeOYyJ/6wJQ3l4Nqtq38DlsUbWXXLMuP8amPchSibyVxus6LdIlaNJOoBCgTPAL/h592zSnks83PfB0n7p1yMr07DDdBv0Ggq4ZB9HEdtb7Wc8ovrjJ3iMzciBzD7VboJpFcxTWZKx9I9MBj2hjbD3GggzBbksOjfG0fHzI4aCio8I8+JpEoELKF1NMUJWHENT2DCZK68rbAfEiEwN774tnUWKdSNAzxHheYMRBkkY6mor1cAPQ7Hh36YY4O+sr++dIUjjbqceRDuSfVlgP/COnpFPqQ1cZduCoKiOVB4c2Urqjf/NYlK8cX06n+wnYsCqsg2kjShm0CmNdGf2cEDfnTjAZffavtCr4XVnhmP0j3HXtvdPJwgCBs1wbmH/nw9WUeiTb3M8LAzNsBfI1jVMhuAi7n74r8IXTUhqXgwrTILqJ5X2t7/z6QDJM9o8cLBGi0Ch0kV01GIzRD+coWDr0jOBdA7GKE0tKHAwcTbN1YUKQTaSANrestqHYves4KuhLqy981jT2KBSGe/MReW2Nk7TcW5wAqFP/RMlNak4ucSAQssZievNNP2bXwRXKYrotn2RASk28B0DWe/m+eMMfphfolYCN1r2gaVKqiw+NK2RcHOEKYyeHKi2B8Qhd6w/83s5gQxiL3b8qnfHiQXhLpyZaJIU1SoeUu6LceRNZ0DSJ1mpZCj6BGtYK4Q8gv0J6RaMBQfUDJp1rL4/9g0QoCRNJBt65PQdFMZWF1fZh7RRKHPTc0lhwq1IJJrkX/1jcSlgHWz4j0inBD6imf9/5aa4oaxxkt1LgDM73uF8OjLiEp6hktiDc5hjWMZ0XvJjCa4zwbGHNYfW5mVL2lMsppmjhQmkJTjRGX76rNb3tK7bCPx16dhJigB8g++8812s0pDqvhk0WJqgniCt9dhYZzr+ENdOQOm/1w67sOq1lXgHWO7xFfgkyH2r+ABwxPxtqPRmZRQdNn49YMWBFZBoUcGSOK2uzzxT/tZF0y5ZjWYP3jAAC6C/NhWDokhoDjb37tPJQMAiyp3Ns3OvtKxncdXnomB1G0mIX6LYhkFUMOaLhaYjfw6A/kmcmZqDmqS5FcMcXioZT59i2IhY1DlHsCVhRv4T/kvtgBkWJ9awdAppv29DOtXUTWZl2+ofmQnRpQPQKNLYs91PrjeG8bPr1BjaPkuWETZUiU5g+LNJZAqlTnibK7zCbQLy9IXNmD5BRjCLQoOvwJZgjfdV2rUTmr4K6uV/k32mPLm8aXpo68NyjdMSnna02GxKER0VVO6L8gdS6baL9qMJnp9N0zR9++GA5SK3QVtPD1U0/TEARGXVS8JkwyU6ja/c63vgvZH4WOvTrehzHSeLuiHOdN4VwZQU7942+P2geBhBR5gR+NQI/1UIJy7zNf+7zdqsVKPeQ1iPd0jACF/u4duCApB8gUqe6JbfKCK/1dNLgPaJRX3C5aBO9fkDEDonW2BVJkPkxGlCOI4kXppFWyNRk/Sb7HuxqDVGGPv7pfKWM8AkZ6Ov3a9fpIYHSJz/rpXGUZHEmOJxet4pDNfNdBVXw55PTsfOEAYxQ2M6jq4sYB2TckipHDKge+HUwhLJnKEk9ytygAluo8Vftyp5m5pPW2QCfG3t+E3FMJmc3sstOySKmXVXct+9Ma5Vgkcqi9wSdUvURimMxODH/kuHEtsXqZ6ts/RTFAOvb5leYOuOdbanp21w7Ez/WqMA+vRTEXcanvRKU022s1HVU18nzb9c717G5x9Y+LLF4axL6ySr+K0aOGIeUOxfKN5xRZZSqUgIzyBYTAEL3gAGc2UFpuvWN42GiD9ARFrVyAYYD6d1vSeHFb8S9oRBsJuNrbQ5rBI3TTA0pqi4sB+7ijkgIFa0c7FsuWRwTvnBJjYxV3exI7kOHnCifpGLVIOq9z8MRA+2W6emubSxsnabi3OADVCA6vSpkPYt+pT6vrZ2Ri0c17dzacd4T1VGjsMfZC7BXYRhHommmVfTqoGXQIuhbHrKS9EPnisJDqHmRzt25zTk3LA5M2oWY33blmsn8LR9qiH3kxR6oddKx/vvCkcOP243I0gUDdslywYAAb45rUvyAAz51eE+zsPChdqLK8gKM77oNsn1sadyRPt4iFomP0vUjAAh9aQaMhqwAcNqcLKszL3r0rMWX6Cy5bnnRXkR5oiVcLT858ajxoy/b22CE/IrTgWpgXHT5gpGZMWLc8qiVxNZn7T8N5s9k3Oe58MckQrhYu+KpHLybHU/j7bDthyOmEKETJPlwgvAXoNHX15nxuYo6VG58NeAn4tkLrH/VX87fJyqpjauKQvjdbSDaGoxg+ErsGBS7rZqiNs1me1/662QITCM6ogCNAo/k2qfdkyNhtOfoXF7iBM+ZEXCSok245e9PGTDojo/PUmRzjtLcElnCMV+O3sEmsOWll/+bk7USbU8ca0T//S+nufd5uiYBDDyayl+2+SzQJeEblAwfbp2xoUPUv/MmDgzTwNg3Ns3OvzV6Dtj9v+2LKbTr7DDGb7olvOnMq3Xn2dzphwXrdU2ywKvqn3KyvzZ4Lc3nSOQTZIyoh8CxJCIM2f0rwpzecO7ikr1liqxUuW7LpDtzM1+PHHfUha62iM4L/t94pYiJ3AF5LestRh9Qf89J0BMFmGIivawUaHmsjNUEpaCRjaVc4ENku37VsXpI9fjmLYtN8RePvB2spVm1AP4Ns7qrr6eAmIvS2WVB0VDq/LxuGozOmhVBqvpN+YjIqL33nW5eyVBDGBSfK5lw9McRTFauob2kXPEKmjyPKWFvTkCaPh3wgHNveGwiLC8sb5PFGEv6wPX1TiqPIto9KQkW6Tc30PBHY0Fa9RYw0kUNAmt2vPYu85YDWBs/JObF1PMWqY3MQA9s4T1jJeQJ3CWT5W1wrvOzbTHXyOAUcHjUgkEt4tdZdKzVFArNOHTDu9FmobQZ3N3XZtrK149DBN4+7RC/tvA3PSCkY0hVLtFLri1E2N+c+3rytIFMhsJeQp9hO4W74fgLggqRJd70qCr+ev5tr6YpADZFUcrNt2lsYZJgCJDdzdkruXFkhSpOm02r8ZJ3sSgSbWXCO3Sdy7K7e1k2Yhv0uchYKKZP+LFBEmGTS4U9zE2YInZMOme/VdKZWZsl92cg4nKtvX2npLn+NfS9GERje/bIxNV0txoSUY/FraW2sGD2iBDlwRXS/i/o2EdFBHL0AMKHLcSmjINeclSHnVwLYnHg6AlzIJ8Bn7n0q6fZxdsd9B7YY8BLKd8pFYJEh8Hko2Ag80tAHB0SsYkvOWMZv67+XTiXfhiN8QrR4Y8NF7YQNy1HUyN90F0eRuFWOU/8xgfQX5KawAhYGgIARFZQ6REi5MsOch2iwOh/v2wzfRAAycHnVP4L5enFc1qmGbi59XYOUwX/Nrx9ESuKAGxTWEcDAL8Xq5OHTj60Z4p60gp7OOc/LZ8sNoTmFX/jHztsyHj8nVVIlRupCtfgQ8hqpCAZv3xeeIvisJwz3TVyTlPhwqqCltX5d4oVX5y6DTnxzsCId2lxjnrE7xO1fnmH4v57NSxdxdlC9E/r0qsI6SJTk1LkAPJ74TaK3KjgBxM3xdNjPzqynZPuTOA0kdzTYwRBXtlKAYvpCwSasjr7g4FXndPY7EvcUo2Gfv3jrm0xlyEUc24tT9ZFyuPdcUFfCC0I7+EMCIrlKRvIpK8IyCCakM2nu8hWQc1LuqJWeGvVhJHuVw9hkXoRW5p/bQXkesUAjStYDmROPl13iaekLH0VshrK4FafXGrR+S5FSJ82+ogzB4oZgFNwlrObBPZVLbg5TzW0SBC+4Hv/cFGm3CdSKEX9oPx5XdIJ3v2yjeejLnFPDoqjH5GnpDWbMJFkKhyl9Bwrjz2VuGbMqqKpIiWKs0SN+Ma3YHmcVnIoh+t2NshGMmkAD2Q+VcYhMBNyixKAeTYPKcsCXXfJnx/6EBjJ+KA7vAIFEl9iwsz9BJpdWsT7cnQY5UXDJ+OZ7ZxE6JPVdFOK/QuT6+r00LC9MgX3+RwtaAUvrVK3NtiOBsHif2jgJOZZ7lqYh84UgZl5jIWBmUEDY0F69Gi0OF+IgnksgWpmm5iJmbE2fEdm9QuMCN2wxhQTt5qPhOAKtNLNwBg1O7QYBjX4yxd6q0C0dCnS/rNl0Za1j1U/0B15bn3igadrvo73iwbUj11wT75a6ODDZtIb88mBpsVDyd2+rbxnCu3mP78hOjHdLiN+2Opk4HUF4E+ebjr/+ur7AwdONhETSaTyux8n1Gfxh4z8MZimOWsMdx7ySXxeotxbMFg5vql8dTIdTbAt08scPudwuyrqoAugovfuUUMsk090GpghHAJox5S1e+VfF+3lsMVgEv5/TT0N/e76LZSpiG2JTfBz+VaOJ2msL+n9YL2SwRk9oq/I9tBuOz5ucXc8eTstaI+dSSWrgnwmUwTdPuhHeKOfh1GELSh/yyLUXkeCE1MKgigOPjTEvWucnR2o/p8jnrBxaQKCmKbOiVbJwqZzwjXL+0crGsOghgWMcwDcnRVs5ZmC2A4AXAjFMocI2vzxs8i6EDaFqQSnHe/RO0LY8kyJS+fYuQavjHvwSFP3lnFqDmo6ms2yFLulcPdNps4adkcc+Z/x/GRyM+H9whgSPRTLPsBXvKJWlYF/RdrJSn+FvoZR397wa3TZUyq9dYHfqZEc6JNFNCQYJ0yPtEcWzRTe/4mqKz2iO/3dEEIIodjT8K2I3Fp5/iej+iDTuJgQePbhCBQ/1MnxNZAPEu1Uud6efVbtHlTIYC1dgFZSuOEqu5qMoN1foeTKU02N2VlEdWfTdNCDdBIdL7JnTlbfYbdwzeQg/wJU9UYlETMn2SKj8+HTam4BMO1VSpTIUYgImQqaEsvNDm9XNSrss5Z6o8q8UW0Hqj+kJ8Xyi7XnGllXtBSNfnwYJNtMFt0bHVzM+JqaSQ3D6LEPNSigB7XJQv99WT0naNvYRh2rMyomt5eV3VMnEUa7/Zv5JNZ1zFZJ6qRQhtRyfe8F1MEUtSfrzVaittah9zh1w5rOt/dkxDcmqbbCdMQp/A5rsuDIjwU7wT+TQW/VC2Gu0hoYmQlC9iFa2sTw9IDOL+2vqUjZIUOycfFmCQz16kLoBF/3Pudkvr+HkyvGNmZvTaSqnVExnGxzZyryiEtHvmSk6aql8jGWY5nyU/HWASmRn4dGYhVXHXnftsBh4UG2kYeB4Kww6Mptt55UaXekFqZG2y289SWUh+O0i/Y1c92Q0PvC0Le/ejoi63smVr/4AkmHTy0x4EfA9Zoa8Ud4BQMXsxdBVRICYZlYu/4dWwoaBFMzyd3NxRk6+lwn5PaW3mlPxD9tqZo4nD2gyCrBJhKWpFlue4ZoUzNARJzm4urHXlQu4C57EojPhNN3FG7bP8C1gH8SMeJJCpvmcQOWkZgQYWcB27CzFGygzOt+nzKuQXzuADOUVOQxT439c+V6QGVYaUH3zvDvhhjdlMNJBG19l2XSvEJ8q2uVKxUwhk4JlJn/7fC1MGzAIWVc6j9/65KSmrp0biQPoUeajiGMYWJVkZHtMxi8Jx8xNh88PWd28t3DseZ6SE7LupwotlSmZVJ09vIGZwB9LQ3f95LNcLk9juKg4V0jvm48l+Xl/9i20kRuOFp9HWuUv8/Dka5GyfZU4pNxnGIGJKZlFQ2AHYnjRos0xA0j3VB901Efh1n6Mg5ptZjy1CKQhVzCfFJC0AGNdP06Vp1Wgh1ElJ/MPb+Q2iSW3sf7cDrb7Z0hZdh7gRyXrPQTyS7eDLdlvmTz4I2zyzdqXGP2TAHj1cMBUtQClumuw+GSo4jSY0ym7Oj/DiN6VCmOcwBuvS/ZapS5J6Ps0UfIQ96NdTpg3wQ7zlZvgHrr4NBWaEvv9BwoBaMv32UoADGFmoouq2TjIz16gq0inJRnqU6sgJieZPUUa4nqrRVXXe1jF2CG9FI/OA/40zJtpycpkfKMm8ker6Z1Ofll11MAKr3g0sWLVDQJnSVAa5tUq5JgfZCsAstE02t8TKU2XGbU9cHeTOPSQ79cPt2yAOyaaEhga9AfkMjV3q/Dvz1BrNiRT/KP+6KxrRPT7EI8xag+6OTU3HoF3rWRriPNJzKIBAz/3k8RPrwWukIsyDUakOjOL/jLVRcb6lF+2YL5LZWnFwG4AASKNsVc7bFHC5raDXgU3+oiiFSGi1I7breBNy0a1emNAMqJPvj9NT5oD/UCrnzak7zc3X/x+sUqJUBCHDtgURPoPaGLdNcOr1IHWl2rK84yCuNG05WOvBD6lsh1bARhrfuB+q4FUrscKvgKX+2k3jFn2wBR9EUXaaC0or9r7krAiS7FhRNDoNmUM45XiAzxr4FracVouoYmo/l1xoI/vfy1noJ9BSIUd7FbkABvSjG+4kH4EddSJusHEt1fydOOqn5clZG3pnC5FwXPETwu4ojZ5L1q2e2azoTWqzx5zwvmTFXmoH3DG+3XBMOw5s5+pY2GnYEBWV9uTSmIcnS0SQ80zNQhtmbxvbiC8buNHU566GJC+Itp/ixFznElZoEhjmN+6cQMv0vIy06JjL42G9J3yw12RaV7fdgDm38vbSWyY1JiJm21UUMKR3TDS/HEfXG8HMO7vgYIqY2y2HrX3hZQi1M6nbQOxdvOLFs3Dw/qQP30hqnBTqltoSWtPO1I2upxTyH4bz6ExzhNAiU/khvFzBO44FffjeNS+KfKOlVaj6/OHzSWlSP265qv+KazIoHvI5rttSx/tq1oK2uQ1KBxYazW1kION1Fj0CZz2Bdqy2IZ4I2XvPi7C5kybI0VMKiM7SMG5QSZLortiQ9x/fqitSaWd7lcwX3CSHFexfs0zhcZfU9aBei5/ZaeFz7YqDOnVO3VbMNq43VqhUjk+XnQLIxgAahuTZNABKkUfjYdUAAAACaTjjGIadEhOyWIOFueyzAsyKDvmSvfVHyOu1ytTq8pwFSISIhHQYi7l8nXRbOsGrHoTTmQuiXHUCQ7ZOtw1Mj8s9RZOHiJAX0VFQkKUeH3acvcwLLPMfSgdtodwgo2vm/CXj60nmp7xsxFwjVd3kT2jObqujoYtMcr3bCm7QLNL3PJwd+6a92MnUzw/Pj5PoUpZ+j6QMid9oLzekFrIR2Mjd8xwPLyKLGcSF/U54iBFpXIuNgrbtd0DjaDKinUROe1cYkUqHouBosHstAv1HBNKxV8Tqy9TeWLjeIniL2Epo8Vhvj7bNV7uMYavIPDAhL7wFBcJ6XstFrYgyqZfbIDbK9eYb5ni534GiSQjnZdzOG89JSsMbrkyoDg8UO/w2oshOJhGtnsp1Qdl0g4BWhbO/ah3axhB47gLfWX7sEOLpdma+B6a+6bJ2Qev6Zb3CIt55lDE4Sv1jhUwVsCJNXDjQWSo344BMnnH168Dd6PtkPlLM7SFaNyJ9cqtEGq41tne3Br2xAj0QX5nLCG9fCpvnE/he4oRXQ5E13Y2xYwb6CGUv50TGPhBgjQdv9/4w7IsPY3Pgwpg/XyPTBX0tbrB1AsIuSdMzudiNvnX7CBWaaqxw8Gqq9OYL86f7cwpz1XaNP3+Os4AAAAlS6JnJxDMacsPJ6anYEdAgiEQl2w4fpvCOdEgatt7VSxm+1mW9If/S8XQHUXbVbRtGkb0bp4BrZ1NnjppU4f1rMMq1SVuM4YkMAfeWC+Uj5YB2v/vjmcrPcbw+86fS5mEEhjJB9aUiFyqoBvrG+CC1QOCq7JzYzAOK6XPIlxErxFGQQ5tsItbpj2B0s445AL5yVhIWXgsRZ2QZiUFPPtWsCzsCC6CGSmv3dh9JDyfG8VCKhCUHhZucgHsYRRaydef9208JkaoMmc/mdHUqaRZtv0tIW8LBSJBF0DBO75fm7t2LhabeWV+UNkIqG/riwEmLxy3e3lb6ByVOXAlIQ3a8ahxidsZ3vDdp7LKtiG4AAAAsHPIeupB3E4ct1lrXuZTsI1/oHUfLJK0ANBBDTacVq50jUn1HcKVJ542Yx/h9uiG0haYwIxTzg4gLoKSkCAAAAAAA;" vertex="1" parent="B9nktvaiZcIBfOLc8zEn-6">
          <mxGeometry x="240" y="528.23" width="78" height="71.54" as="geometry" />
        </mxCell>
        <mxCell id="B9nktvaiZcIBfOLc8zEn-45" style="edgeStyle=orthogonalEdgeStyle;rounded=0;orthogonalLoop=1;jettySize=auto;html=1;entryX=1;entryY=0.75;entryDx=0;entryDy=0;entryPerimeter=0;exitX=0;exitY=0.75;exitDx=0;exitDy=0;exitPerimeter=0;" parent="1" source="B9nktvaiZcIBfOLc8zEn-10" target="Mudxv_R2OKV88G6gSwlo-5" edge="1">
          <mxGeometry relative="1" as="geometry" />
        </mxCell>
        <mxCell id="B9nktvaiZcIBfOLc8zEn-46" value="response" style="edgeLabel;html=1;align=center;verticalAlign=middle;resizable=0;points=[];" parent="B9nktvaiZcIBfOLc8zEn-45" vertex="1" connectable="0">
          <mxGeometry x="0.4053" y="-2" relative="1" as="geometry">
            <mxPoint x="29" as="offset" />
          </mxGeometry>
        </mxCell>
      </root>
    </mxGraphModel>
  </diagram>
</mxfile>
